<svg width="22" height="20" viewBox="0 0 22 20" fill="none" xmlns="http://www.w3.org/2000/svg">
	<path
		d="M17.0253 11.9331L16.6766 12.2915L17.0314 12.6366L17.3801 12.2854L17.0253 11.9331ZM13.3506 9.05546L16.6766 12.2915L17.374 11.5747L14.0479 8.33873L13.3506 9.05546ZM17.3801 12.2854L20.6496 8.99225L19.9399 8.2877L16.6705 11.5808L17.3801 12.2854Z"
		fill="currentColor" />
	<path
		d="M13.7518 15.0432C12.625 15.7002 11.3062 15.959 10.0115 15.7771C8.71674 15.5952 7.5229 14.9833 6.62551 14.0418C5.72812 13.1004 5.18039 11.885 5.07204 10.5949C4.96369 9.30481 5.30115 8.01646 6.02914 6.94091C6.75713 5.86536 7.83248 5.06638 9.07903 4.67486C10.3256 4.28335 11.6694 4.32251 12.8904 4.78593C14.1114 5.24936 15.1371 6.10956 15.7995 7.22564C16.4619 8.34171 16.7218 9.64747 16.5365 10.929"
		stroke="currentColor" stroke-linecap="round" />
	<path d="M16.9264 12.7261L12.6008 8.26553L21.287 8.29978L16.9264 12.7261Z" fill="currentColor" />
</svg>