<svg width="25" height="24" viewBox="0 0 25 24" fill="none" xmlns="http://www.w3.org/2000/svg">
	<path fill-rule="evenodd" clip-rule="evenodd"
		d="M15.5146 14H14.7246L14.4446 13.73C15.4246 12.59 16.0146 11.11 16.0146 9.5C16.0146 5.91 13.1046 3 9.51465 3C5.92465 3 3.01465 5.91 3.01465 9.5C3.01465 13.09 5.92465 16 9.51465 16C11.1246 16 12.6046 15.41 13.7446 14.43L14.0146 14.71V15.5L19.0146 20.49L20.5046 19L15.5146 14ZM9.51465 14C7.02465 14 5.01465 11.99 5.01465 9.5C5.01465 7.01 7.02465 5 9.51465 5C12.0046 5 14.0146 7.01 14.0146 9.5C14.0146 11.99 12.0046 14 9.51465 14Z"
		fill="currentColor" />
</svg>