<svg width="16" height="15" viewBox="0 0 16 15" fill="none" xmlns="http://www.w3.org/2000/svg">
<path d="M8.77842 13.655C9.58671 13.5125 10.359 13.2122 11.0512 12.7712C11.7435 12.3302 12.342 11.7572 12.8128 11.0849C13.2836 10.4125 13.6173 9.65405 13.795 8.85275C13.9726 8.05144 13.9907 7.22299 13.8482 6.4147C13.7056 5.60641 13.4053 4.8341 12.9643 4.14188C12.5233 3.44965 11.9503 2.85107 11.278 2.3803C10.6056 1.90953 9.84717 1.5758 9.04586 1.39815C8.24456 1.2205 7.41611 1.20243 6.60781 1.34495C5.79952 1.48748 5.02721 1.78781 4.33499 2.2288C3.64277 2.6698 3.04418 3.24282 2.57341 3.91515C2.10264 4.58748 1.76891 5.34595 1.59126 6.14725C1.41362 6.94856 1.39554 7.77701 1.53807 8.5853C1.68059 9.3936 1.98092 10.1659 2.42192 10.8581C2.86291 11.5503 3.43593 12.1489 4.10826 12.6197C4.78059 13.0905 5.53906 13.4242 6.34037 13.6019C7.14168 13.7795 7.97013 13.7976 8.77842 13.655L8.77842 13.655Z" stroke="currentColor"  stroke-width="1.5"/>
<path d="M7.69312 7.5L7.69312 11.25" stroke="currentColor"  stroke-width="1.5" stroke-linecap="round"/>
<path d="M7.69312 4.375L7.69312 3.75" stroke="currentColor"  stroke-width="1.5" stroke-linecap="round"/>
</svg>
