<svg width="24" height="24" viewBox="0 0 24 24" fill="none" xmlns="http://www.w3.org/2000/svg">
<path fill-rule="evenodd" clip-rule="evenodd" d="M21 5.66667V4.33333C21 4.14917 20.8881 4 20.75 4L5.25 4C5.11187 4 5 4.14917 5 4.33333V5.66667C5 5.85083 5.11187 6 5.25 6L20.75 6C20.8881 6 21 5.85083 21 5.66667ZM18 8.33333V9.66667C18 9.85083 17.8881 10 17.75 10H5.25C5.11187 10 5 9.85083 5 9.66667V8.33333C5 8.14917 5.11187 8 5.25 8L17.75 8C17.8881 8 18 8.14917 18 8.33333ZM15 13.6667V12.3333C15 12.1492 14.8881 12 14.75 12H5.25C5.11187 12 5 12.1492 5 12.3333V13.6667C5 13.8508 5.11187 14 5.25 14H14.75C14.8881 14 15 13.8508 15 13.6667ZM11 17.6667V16.3333C11 16.1492 10.9041 16 10.7857 16H5.21428C5.09589 16 5 16.1492 5 16.3333V17.6667C5 17.8508 5.09589 18 5.21428 18H10.7857C10.9041 18 11 17.8508 11 17.6667Z" fill="#373F50"/>
<path d="M3 3V20H21" stroke="#373F50" stroke-width="1.5" stroke-linecap="round" stroke-linejoin="round"/>
</svg>
