<svg width="24" height="24" viewBox="0 0 24 24" fill="none" xmlns="http://www.w3.org/2000/svg">
<path d="M10 8H17" stroke="#373F50" stroke-width="2" stroke-linecap="round"/>
<path d="M10 12H17" stroke="#373F50" stroke-width="2" stroke-linecap="round"/>
<path d="M10 16H17" stroke="#373F50" stroke-width="2" stroke-linecap="round"/>
<path d="M7.5229 6.09091V9H6.90785V6.67472H6.8908L6.22461 7.09233V6.54688L6.94478 6.09091H7.5229Z" fill="#373F50"/>
<path d="M5.97603 13V12.5568L7.01154 11.598C7.09961 11.5128 7.17347 11.4361 7.23313 11.3679C7.29374 11.2997 7.33967 11.233 7.37092 11.1676C7.40217 11.1013 7.41779 11.0298 7.41779 10.9531C7.41779 10.8679 7.39838 10.7945 7.35955 10.733C7.32073 10.6705 7.2677 10.6226 7.20046 10.5895C7.13323 10.5554 7.057 10.5384 6.97177 10.5384C6.88275 10.5384 6.8051 10.5563 6.73881 10.5923C6.67253 10.6283 6.62139 10.6799 6.5854 10.7472C6.54942 10.8144 6.53143 10.8944 6.53143 10.9872H5.94762C5.94762 10.7969 5.99071 10.6316 6.07688 10.4915C6.16306 10.3513 6.28379 10.2429 6.4391 10.1662C6.5944 10.0895 6.77338 10.0511 6.97603 10.0511C7.18436 10.0511 7.36571 10.0881 7.52006 10.1619C7.67537 10.2348 7.79611 10.3362 7.88228 10.4659C7.96845 10.5956 8.01154 10.7443 8.01154 10.9119C8.01154 11.0218 7.98976 11.1302 7.9462 11.2372C7.90359 11.3442 7.82736 11.4631 7.71751 11.5938C7.60766 11.7235 7.45283 11.8793 7.25302 12.0611L6.8283 12.4773V12.4972H8.04989V13H5.97603Z" fill="#373F50"/>
<path d="M6.99272 17.0398C6.7806 17.0398 6.59168 17.0033 6.42596 16.9304C6.26119 16.8565 6.13098 16.7552 6.03533 16.6264C5.94064 16.4967 5.89187 16.3471 5.88903 16.1776H6.50835C6.51213 16.2486 6.53533 16.3111 6.57795 16.3651C6.62151 16.4181 6.67927 16.4593 6.75124 16.4886C6.82321 16.518 6.90418 16.5327 6.99414 16.5327C7.08789 16.5327 7.17075 16.5161 7.24272 16.483C7.31469 16.4498 7.37103 16.4039 7.41175 16.3452C7.45247 16.2865 7.47283 16.2187 7.47283 16.142C7.47283 16.0644 7.45105 15.9957 7.40749 15.9361C7.36488 15.8755 7.30333 15.8281 7.22283 15.794C7.14329 15.7599 7.04859 15.7429 6.93874 15.7429H6.66744V15.2912H6.93874C7.03155 15.2912 7.11346 15.2751 7.18448 15.2429C7.25645 15.2107 7.31232 15.1662 7.3521 15.1094C7.39187 15.0516 7.41175 14.9844 7.41175 14.9077C7.41175 14.8348 7.39424 14.7708 7.3592 14.7159C7.32511 14.66 7.27681 14.6165 7.21431 14.5852C7.15276 14.554 7.08079 14.5384 6.9984 14.5384C6.91507 14.5384 6.83884 14.5535 6.76971 14.5838C6.70058 14.6132 6.64518 14.6553 6.60352 14.7102C6.56185 14.7652 6.5396 14.8295 6.53675 14.9034H5.94727C5.95011 14.7358 5.99793 14.5881 6.09073 14.4602C6.18353 14.3324 6.30853 14.2325 6.46573 14.1605C6.62388 14.0876 6.80238 14.0511 7.00124 14.0511C7.202 14.0511 7.37766 14.0876 7.52823 14.1605C7.6788 14.2334 7.79575 14.3319 7.87908 14.456C7.96336 14.5791 8.00503 14.7173 8.00408 14.8707C8.00503 15.0336 7.95437 15.1695 7.8521 15.2784C7.75077 15.3873 7.61867 15.4564 7.45579 15.4858V15.5085C7.6698 15.536 7.83268 15.6103 7.94442 15.7315C8.05711 15.8518 8.11299 16.0024 8.11204 16.1832C8.11299 16.349 8.06516 16.4962 7.96857 16.625C7.87293 16.7538 7.74083 16.8551 7.57227 16.929C7.40371 17.0028 7.21052 17.0398 6.99272 17.0398Z" fill="#373F50"/>
</svg>
