<svg width="25" height="24" viewBox="0 0 25 24" fill="none" xmlns="http://www.w3.org/2000/svg">
	<path
		d="M4.51562 7.5V15.5C4.51562 17.3856 4.51562 18.3284 5.10141 18.9142C5.6872 19.5 6.63001 19.5 8.51562 19.5H15.5156C17.4012 19.5 18.3441 19.5 18.9298 18.9142C19.5156 18.3284 19.5156 17.3856 19.5156 15.5V7.5M4.51562 7.5H19.5156M4.51562 7.5H2.9442C2.77713 7.5 2.6936 7.5 2.63262 7.46168C2.60082 7.4417 2.57393 7.41481 2.55394 7.38301C2.51562 7.32202 2.51562 7.23849 2.51562 7.07143V7.07143C2.51562 6.06905 2.51562 5.56786 2.74554 5.20195C2.86543 5.01115 3.02677 4.8498 3.21758 4.72991C3.58348 4.5 4.08467 4.5 5.08705 4.5H18.9442C19.9466 4.5 20.4478 4.5 20.8137 4.72991C21.0045 4.8498 21.1658 5.01115 21.2857 5.20195C21.5156 5.56786 21.5156 6.06905 21.5156 7.07143V7.07143C21.5156 7.23849 21.5156 7.32202 21.4773 7.38301C21.4573 7.41481 21.4304 7.4417 21.3986 7.46168C21.3376 7.5 21.2541 7.5 21.0871 7.5H19.5156"
		stroke="currentColor" stroke-width="2" />
	<path d="M9.51562 14.5H14.5156" stroke="currentColor" stroke-width="2" stroke-linecap="round" />
</svg>