<svg width="25" height="24" viewBox="0 0 25 24" fill="none" xmlns="http://www.w3.org/2000/svg">
	<path
		d="M12.0156 3L12.7452 2.31606L12.0156 1.53789L11.2861 2.31606L12.0156 3ZM11.0156 9C11.0156 9.55228 11.4633 10 12.0156 10C12.5679 10 13.0156 9.55228 13.0156 9H11.0156ZM15.7452 5.51606L12.7452 2.31606L11.2861 3.68394L14.2861 6.88394L15.7452 5.51606ZM11.2861 2.31606L8.28609 5.51606L9.74516 6.88394L12.7452 3.68394L11.2861 2.31606ZM11.0156 3V9H13.0156V3H11.0156Z"
		fill="currentColor" />
	<path
		d="M21.0156 12L21.6996 12.7295L22.4777 12L21.6996 11.2705L21.0156 12ZM15.0156 11C14.4633 11 14.0156 11.4477 14.0156 12C14.0156 12.5523 14.4633 13 15.0156 13L15.0156 11ZM18.4996 15.7295L21.6996 12.7295L20.3317 11.2705L17.1317 14.2705L18.4996 15.7295ZM21.6996 11.2705L18.4996 8.27046L17.1317 9.72954L20.3317 12.7295L21.6996 11.2705ZM21.0156 11L15.0156 11L15.0156 13L21.0156 13L21.0156 11Z"
		fill="currentColor" />
	<path
		d="M12.0156 21L12.7452 21.6839L12.0156 22.4621L11.2861 21.6839L12.0156 21ZM11.0156 15C11.0156 14.4477 11.4633 14 12.0156 14C12.5679 14 13.0156 14.4477 13.0156 15H11.0156ZM15.7452 18.4839L12.7452 21.6839L11.2861 20.3161L14.2861 17.1161L15.7452 18.4839ZM11.2861 21.6839L8.28609 18.4839L9.74516 17.1161L12.7452 20.3161L11.2861 21.6839ZM11.0156 21V15H13.0156V21H11.0156Z"
		fill="currentColor" />
	<path
		d="M3.01562 12L2.33168 12.7295L1.55351 12L2.33168 11.2705L3.01562 12ZM9.01562 11C9.56791 11 10.0156 11.4477 10.0156 12C10.0156 12.5523 9.56791 13 9.01562 13L9.01562 11ZM5.53168 15.7295L2.33168 12.7295L3.69957 11.2705L6.89957 14.2705L5.53168 15.7295ZM2.33168 11.2705L5.53168 8.27046L6.89957 9.72954L3.69957 12.7295L2.33168 11.2705ZM3.01562 11L9.01562 11L9.01562 13L3.01562 13L3.01562 11Z"
		fill="currentColor" />
</svg>