<svg width="25" height="24" viewBox="0 0 25 24" fill="none" xmlns="http://www.w3.org/2000/svg">
<path fill-rule="evenodd" clip-rule="evenodd" d="M12.0146 2.5C9.77782 2.5 7.85393 3.83526 6.99454 5.75007C6.91193 5.93416 6.85339 6.06452 6.80827 6.15941C6.78593 6.20638 6.76916 6.23984 6.75632 6.26371C6.74678 6.28147 6.74168 6.28965 6.74053 6.29149C6.74039 6.29171 6.74031 6.29184 6.74029 6.29188C6.67129 6.38826 6.63483 6.41763 6.61356 6.4314C6.59221 6.44522 6.55024 6.46657 6.43298 6.49017C6.39746 6.49732 6.32369 6.5 6.01465 6.5C4.08165 6.5 2.51465 8.067 2.51465 10C2.51465 11.933 4.08165 13.5 6.01465 13.5H6.68622L7.68622 12.5H6.01465C4.63394 12.5 3.51465 11.3807 3.51465 10C3.51465 8.61929 4.63394 7.5 6.01465 7.5L6.06821 7.50003C6.29422 7.50021 6.48203 7.50035 6.6303 7.47051C6.81106 7.43413 6.98886 7.37969 7.15695 7.27088C7.32504 7.16208 7.44751 7.02216 7.55472 6.87214C7.61262 6.79112 7.66431 6.68782 7.71138 6.58881C7.7618 6.48277 7.82484 6.34231 7.90419 6.1655L7.90423 6.16542L7.90687 6.15954C8.61089 4.59089 10.1859 3.5 12.0146 3.5C13.8434 3.5 15.4184 4.59089 16.1224 6.15954L16.1252 6.16566C16.2045 6.3424 16.2675 6.4828 16.3179 6.58881C16.365 6.68782 16.4167 6.79112 16.4746 6.87214C16.5818 7.02216 16.7043 7.16208 16.8723 7.27088C17.0404 7.37969 17.2182 7.43413 17.399 7.47051C17.5473 7.50035 17.7351 7.50021 17.9611 7.50003L18.0146 7.5C19.3954 7.5 20.5146 8.61929 20.5146 10C20.5146 11.3807 19.3954 12.5 18.0146 12.5H16.3431L17.3431 13.5H18.0146C19.9476 13.5 21.5146 11.933 21.5146 10C21.5146 8.067 19.9476 6.5 18.0146 6.5C17.7056 6.5 17.6318 6.49732 17.5963 6.49017C17.4791 6.46657 17.4371 6.44522 17.4157 6.4314C17.3945 6.41763 17.358 6.38826 17.289 6.29188L17.2888 6.2915C17.2876 6.28968 17.2825 6.2815 17.273 6.26371C17.2601 6.23984 17.2434 6.20638 17.221 6.15941C17.1759 6.06452 17.1174 5.93416 17.0348 5.75007C16.1754 3.83526 14.2515 2.5 12.0146 2.5Z" fill="#373F50"/>
<path d="M6.99454 5.75007L6.53838 5.54534V5.54534L6.99454 5.75007ZM6.80827 6.15941L6.35671 5.94471L6.35671 5.94471L6.80827 6.15941ZM6.75632 6.26371L7.19672 6.50047L7.19672 6.50046L6.75632 6.26371ZM6.74053 6.29149L7.16479 6.55607L7.16487 6.55594L6.74053 6.29149ZM6.74029 6.29188L7.14684 6.58294L7.16205 6.56169L7.17497 6.53897L6.74029 6.29188ZM6.61356 6.4314L6.34187 6.01166L6.34187 6.01166L6.61356 6.4314ZM6.43298 6.49017L6.33433 6L6.33432 6L6.43298 6.49017ZM6.68622 13.5V14H6.89333L7.03977 13.8536L6.68622 13.5ZM7.68622 12.5L8.03977 12.8536L8.89333 12H7.68622V12.5ZM6.01465 7.5L6.01491 7H6.01465V7.5ZM6.06821 7.50003L6.06861 7.00003H6.06847L6.06821 7.50003ZM6.6303 7.47051L6.53164 6.98034H6.53164L6.6303 7.47051ZM7.15695 7.27088L7.42864 7.69062L7.42865 7.69062L7.15695 7.27088ZM7.55472 6.87214L7.96152 7.16285V7.16285L7.55472 6.87214ZM7.71138 6.58881L8.16294 6.80351L8.16294 6.8035L7.71138 6.58881ZM7.90419 6.1655L8.36036 6.37023L8.36076 6.36932L7.90419 6.1655ZM7.90423 6.16542L7.44806 5.9607L7.44766 5.96159L7.90423 6.16542ZM7.90687 6.15954L7.45071 5.95481L7.4507 5.95481L7.90687 6.15954ZM16.1224 6.15954L15.6663 6.36427L15.6663 6.36427L16.1224 6.15954ZM16.1252 6.16566L16.5813 5.96093L16.5813 5.96092L16.1252 6.16566ZM16.3179 6.58881L15.8664 6.8035L15.8664 6.80351L16.3179 6.58881ZM16.4746 6.87214L16.8814 6.58143L16.8814 6.58143L16.4746 6.87214ZM16.8723 7.27088L16.6007 7.69062L16.6007 7.69062L16.8723 7.27088ZM17.399 7.47051L17.4977 6.98034L17.4977 6.98034L17.399 7.47051ZM17.9611 7.50003L17.9608 7.00003H17.9607L17.9611 7.50003ZM18.0146 7.5V7H18.0144L18.0146 7.5ZM16.3431 12.5V12H15.136L15.9895 12.8536L16.3431 12.5ZM17.3431 13.5L16.9895 13.8536L17.136 14H17.3431V13.5ZM17.5963 6.49017L17.4977 6.98034H17.4977L17.5963 6.49017ZM17.4157 6.4314L17.144 6.85114L17.4157 6.4314ZM17.289 6.29188L16.8634 6.55435L16.8725 6.56897L16.8825 6.58295L17.289 6.29188ZM17.2888 6.2915L17.7144 6.02903L17.7131 6.02695L17.2888 6.2915ZM17.273 6.26371L17.7134 6.02697L17.7134 6.02696L17.273 6.26371ZM17.221 6.15941L16.7695 6.37411L16.7695 6.37411L17.221 6.15941ZM17.0348 5.75007L16.5786 5.95481L17.0348 5.75007ZM7.45071 5.95481C8.23245 4.21299 9.98196 3 12.0146 3V2C9.57368 2 7.47541 3.45752 6.53838 5.54534L7.45071 5.95481ZM7.25983 6.37411C7.30788 6.27304 7.3691 6.13662 7.45071 5.95481L6.53838 5.54534C6.45475 5.73169 6.39889 5.85599 6.35671 5.94471L7.25983 6.37411ZM7.19672 6.50046C7.21508 6.46632 7.23581 6.42462 7.25983 6.3741L6.35671 5.94471C6.33606 5.98815 6.32324 6.01336 6.31593 6.02696L7.19672 6.50046ZM7.16487 6.55594C7.17129 6.54564 7.18179 6.52823 7.19672 6.50047L6.31593 6.02696L6.31619 6.02704L7.16487 6.55594ZM7.17497 6.53897C7.17271 6.54294 7.17087 6.54606 7.16995 6.5476C7.1689 6.54936 7.16804 6.55078 7.16751 6.55165C7.16649 6.55333 7.16569 6.55462 7.16543 6.55504C7.16496 6.5558 7.16446 6.5566 7.16479 6.55607L6.31627 6.02691C6.31627 6.02692 6.31626 6.02692 6.31625 6.02694C6.31624 6.02695 6.31623 6.02697 6.31622 6.027C6.31619 6.02704 6.31613 6.02713 6.31607 6.02723C6.31597 6.02739 6.31567 6.02787 6.3153 6.02847C6.315 6.02895 6.31417 6.0303 6.31312 6.03202C6.31258 6.03291 6.31171 6.03435 6.31065 6.03612C6.30972 6.03769 6.30787 6.04081 6.3056 6.0448L7.17497 6.53897ZM6.88526 6.85114C6.9798 6.78994 7.05911 6.70549 7.14684 6.58294L6.33374 6.00082C6.32153 6.01787 6.31259 6.0294 6.30665 6.0367C6.30069 6.04401 6.29837 6.04632 6.29945 6.0452C6.30069 6.04392 6.30553 6.03903 6.31387 6.03213C6.31803 6.02869 6.32267 6.02507 6.32774 6.02137C6.33286 6.01764 6.33766 6.01438 6.34187 6.01166L6.88526 6.85114ZM6.53164 6.98034C6.68029 6.95042 6.79034 6.91258 6.88526 6.85114L6.34187 6.01166C6.3461 6.00892 6.35106 6.00586 6.35658 6.00271C6.36206 5.99958 6.36728 5.99683 6.37213 5.99444C6.38186 5.98965 6.38828 5.98725 6.38988 5.98667C6.39127 5.98617 6.38809 5.98739 6.37882 5.98986C6.36955 5.99233 6.35516 5.99581 6.33433 6L6.53164 6.98034ZM6.01465 7C6.16886 7 6.27044 6.99935 6.33909 6.9976C6.39938 6.99607 6.46643 6.99346 6.53164 6.98034L6.33432 6C6.36401 5.99403 6.37642 5.99633 6.31368 5.99793C6.2593 5.99931 6.16947 6 6.01465 6V7ZM3.01465 10C3.01465 8.34315 4.35779 7 6.01465 7V6C3.80551 6 2.01465 7.79086 2.01465 10H3.01465ZM6.01465 13C4.35779 13 3.01465 11.6569 3.01465 10H2.01465C2.01465 12.2091 3.80551 14 6.01465 14V13ZM6.68622 13H6.01465V14H6.68622V13ZM7.33267 12.1464L6.33267 13.1464L7.03977 13.8536L8.03977 12.8536L7.33267 12.1464ZM6.01465 13H7.68622V12H6.01465V13ZM3.01465 10C3.01465 11.6569 4.35779 13 6.01465 13V12C4.91008 12 4.01465 11.1046 4.01465 10H3.01465ZM6.01465 7C4.35779 7 3.01465 8.34315 3.01465 10H4.01465C4.01465 8.89543 4.91008 8 6.01465 8V7ZM6.06847 7.00003L6.01491 7L6.01439 8L6.06796 8.00003L6.06847 7.00003ZM6.53164 6.98034C6.44349 6.99808 6.31334 7.00022 6.06861 7.00003L6.06782 8.00003C6.27511 8.00019 6.52057 8.00262 6.72896 7.96068L6.53164 6.98034ZM6.88526 6.85114C6.79047 6.91249 6.68054 6.95037 6.53164 6.98034L6.72895 7.96068C6.94159 7.91788 7.18725 7.84688 7.42864 7.69062L6.88526 6.85114ZM7.14792 6.58143C7.05961 6.705 6.98004 6.78979 6.88526 6.85114L7.42865 7.69062C7.67004 7.53437 7.83541 7.33932 7.96152 7.16285L7.14792 6.58143ZM7.25983 6.37411C7.21218 6.47431 7.17711 6.54059 7.14792 6.58143L7.96152 7.16285C8.04814 7.04165 8.11644 6.90132 8.16294 6.80351L7.25983 6.37411ZM7.44803 5.96077C7.36774 6.13968 7.30733 6.27421 7.25983 6.37411L8.16294 6.8035C8.21628 6.69133 8.28194 6.54495 8.36036 6.37023L7.44803 5.96077ZM7.44766 5.96159L7.44763 5.96167L8.36076 6.36932L8.3608 6.36924L7.44766 5.96159ZM7.4507 5.95481L7.44806 5.9607L8.3604 6.37014L8.36304 6.36426L7.4507 5.95481ZM12.0146 3C9.98198 3 8.23246 4.21297 7.45071 5.95481L8.36303 6.36427C8.98933 4.96882 10.3899 4 12.0146 4V3ZM16.5786 5.95481C15.7968 4.21297 14.0473 3 12.0146 3V4C13.6394 4 15.04 4.96881 15.6663 6.36427L16.5786 5.95481ZM16.5813 5.96092L16.5786 5.9548L15.6663 6.36427L15.669 6.37039L16.5813 5.96092ZM16.7695 6.37411C16.722 6.27424 16.6616 6.13976 16.5813 5.96093L15.669 6.37039C15.7474 6.54504 15.813 6.69136 15.8664 6.8035L16.7695 6.37411ZM16.8814 6.58143C16.8522 6.54059 16.8171 6.47432 16.7695 6.3741L15.8664 6.80351C15.9129 6.90132 15.9812 7.04165 16.0678 7.16286L16.8814 6.58143ZM17.144 6.85114C17.0493 6.78979 16.9697 6.705 16.8814 6.58143L16.0678 7.16285C16.1939 7.33932 16.3593 7.53437 16.6007 7.69062L17.144 6.85114ZM17.4977 6.98034C17.3488 6.95037 17.2388 6.91249 17.144 6.85114L16.6007 7.69062C16.842 7.84688 17.0877 7.91788 17.3003 7.96068L17.4977 6.98034ZM17.9607 7.00003C17.716 7.00022 17.5858 6.99808 17.4977 6.98034L17.3003 7.96068C17.5087 8.00262 17.7542 8.00019 17.9615 8.00003L17.9607 7.00003ZM18.0144 7L17.9608 7.00003L17.9613 8.00003L18.0149 8L18.0144 7ZM21.0146 10C21.0146 8.34315 19.6715 7 18.0146 7V8C19.1192 8 20.0146 8.89543 20.0146 10H21.0146ZM18.0146 13C19.6715 13 21.0146 11.6569 21.0146 10H20.0146C20.0146 11.1046 19.1192 12 18.0146 12V13ZM16.3431 13H18.0146V12H16.3431V13ZM17.6966 13.1464L16.6966 12.1464L15.9895 12.8536L16.9895 13.8536L17.6966 13.1464ZM18.0146 13H17.3431V14H18.0146V13ZM21.0146 10C21.0146 11.6569 19.6715 13 18.0146 13V14C20.2238 14 22.0146 12.2091 22.0146 10H21.0146ZM18.0146 7C19.6715 7 21.0146 8.34315 21.0146 10H22.0146C22.0146 7.79086 20.2238 6 18.0146 6V7ZM17.4977 6.98034C17.5629 6.99346 17.6299 6.99607 17.6902 6.9976C17.7589 6.99935 17.8604 7 18.0146 7V6C17.8598 6 17.77 5.99931 17.7156 5.99793C17.6529 5.99633 17.6653 5.99403 17.695 6L17.4977 6.98034ZM17.144 6.85114C17.239 6.91258 17.349 6.95042 17.4977 6.98034L17.695 6C17.6741 5.99581 17.6597 5.99233 17.6505 5.98986C17.6412 5.98739 17.638 5.98617 17.6394 5.98667C17.641 5.98725 17.6474 5.98965 17.6572 5.99444C17.662 5.99682 17.6672 5.99958 17.6727 6.0027C17.6782 6.00586 17.6832 6.00892 17.6874 6.01166L17.144 6.85114ZM16.8825 6.58295C16.9702 6.70548 17.0495 6.78994 17.144 6.85114L17.6874 6.01166C17.6916 6.01438 17.6964 6.01764 17.7016 6.02137C17.7066 6.02507 17.7113 6.02869 17.7154 6.03214C17.7238 6.03903 17.7286 6.04392 17.7298 6.0452C17.7309 6.04632 17.7286 6.04401 17.7227 6.0367C17.7167 6.0294 17.7078 6.01787 17.6956 6.00082L16.8825 6.58295ZM16.8632 6.55397L16.8634 6.55435L17.7146 6.02942L17.7143 6.02904L16.8632 6.55397ZM16.8326 6.50045C16.8475 6.52825 16.858 6.54571 16.8645 6.55605L17.7131 6.02695L17.7134 6.02697L16.8326 6.50045ZM16.7695 6.37411C16.7935 6.42461 16.8142 6.46632 16.8326 6.50047L17.7134 6.02696C17.7061 6.01336 17.6932 5.98816 17.6726 5.94471L16.7695 6.37411ZM16.5786 5.95481C16.6602 6.13662 16.7214 6.27304 16.7695 6.37411L17.6726 5.94471C17.6304 5.85599 17.5746 5.73169 17.4909 5.54534L16.5786 5.95481ZM12.0146 3C14.0473 3 15.7968 4.21299 16.5786 5.95481L17.4909 5.54534C16.5539 3.45752 14.4556 2 12.0146 2V3Z" fill="#373F50"/>
<path d="M12.0146 12L11.3075 11.2929L12.0146 10.5858L12.7218 11.2929L12.0146 12ZM13.0146 21C13.0146 21.5523 12.5669 22 12.0146 22C11.4624 22 11.0146 21.5523 11.0146 21L13.0146 21ZM7.30754 15.2929L11.3075 11.2929L12.7218 12.7071L8.72176 16.7071L7.30754 15.2929ZM12.7218 11.2929L16.7218 15.2929L15.3075 16.7071L11.3075 12.7071L12.7218 11.2929ZM13.0146 12L13.0146 21L11.0146 21L11.0146 12L13.0146 12Z" fill="#373F50"/>
</svg>
