<svg width="25" height="24" viewBox="0 0 25 24" fill="none" xmlns="http://www.w3.org/2000/svg">
	<path fill-rule="evenodd" clip-rule="evenodd"
		d="M15.9349 12.7988C15.9872 12.5407 16.0146 12.2736 16.0146 12C16.0146 9.79086 14.2238 8 12.0146 8C11.7411 8 11.474 8.02746 11.2158 8.07977L15.9349 12.7988ZM8.68141 9.78799C8.26012 10.4216 8.01465 11.1821 8.01465 12C8.01465 14.2091 9.80551 16 12.0146 16C12.8325 16 13.5931 15.7545 14.2267 15.3332L12.7528 13.8594C12.5244 13.9501 12.2754 14 12.0146 14C10.9101 14 10.0146 13.1046 10.0146 12C10.0146 11.7393 10.0645 11.4902 10.1553 11.2619L8.68141 9.78799Z"
		fill="currentColor" />
	<path fill-rule="evenodd" clip-rule="evenodd"
		d="M16.5336 17.6405L15.0643 16.1712C14.0921 16.6805 13.0621 17 12.0144 17C10.4886 17 9.00057 16.3224 7.67355 15.3677C6.35443 14.4186 5.27849 13.2558 4.59827 12.43C4.4985 12.3088 4.42398 12.2182 4.36226 12.1385C4.31339 12.0754 4.28227 12.0315 4.26196 12C4.28227 11.9685 4.31339 11.9246 4.36226 11.8615C4.42398 11.7818 4.4985 11.6912 4.59827 11.57C5.26368 10.7622 6.30775 9.63187 7.58772 8.69463L6.15899 7.2659C4.81083 8.29616 3.73687 9.47005 3.0545 10.2985C3.03091 10.3272 3.00633 10.3566 2.98103 10.3869L2.98101 10.3869C2.66759 10.7624 2.24414 11.2696 2.24414 12C2.24414 12.7304 2.66758 13.2376 2.98101 13.6131L2.98123 13.6133C3.00646 13.6435 3.03097 13.6729 3.0545 13.7015C3.79436 14.5998 4.99458 15.9041 6.50552 16.9912C8.00856 18.0725 9.90448 19 12.0144 19C13.6844 19 15.2204 18.419 16.5336 17.6405ZM8.82123 5.6855C9.80502 5.26871 10.8787 5 12.0144 5C14.1243 5 16.0203 5.92747 17.5233 7.00885C19.0343 8.0959 20.2345 9.40025 20.9743 10.2985C20.9979 10.3272 21.0225 10.3566 21.0478 10.3869L21.0478 10.3869C21.3612 10.7624 21.7847 11.2696 21.7847 12C21.7847 12.7304 21.3612 13.2376 21.0478 13.6131C21.0225 13.6434 20.9979 13.6728 20.9743 13.7015C20.4877 14.2923 19.8018 15.0589 18.9594 15.8237L17.5434 14.4077C18.3233 13.708 18.9683 12.9912 19.4306 12.43C19.5303 12.3088 19.6048 12.2182 19.6666 12.1385C19.7154 12.0754 19.7466 12.0315 19.7669 12C19.7466 11.9685 19.7154 11.9246 19.6666 11.8615C19.6048 11.7818 19.5303 11.6912 19.4306 11.57C18.7503 10.7442 17.6744 9.58138 16.3553 8.63233C15.0283 7.6776 13.5402 7 12.0144 7C11.4634 7 10.9173 7.08837 10.382 7.24624L8.82123 5.6855Z"
		fill="currentColor" />
	<path d="M5.01465 2L21.0146 18" stroke="currentColor" stroke-width="2" />
</svg>