<svg width="25" height="24" viewBox="0 0 25 24" fill="none" xmlns="http://www.w3.org/2000/svg">
	<path
		d="M21.0156 3V2H22.0156V3H21.0156ZM11.7227 13.7071C11.3322 14.0976 10.699 14.0976 10.3085 13.7071C9.91799 13.3166 9.91799 12.6834 10.3085 12.2929L11.7227 13.7071ZM20.0156 11V3H22.0156V11H20.0156ZM21.0156 4H13.0156V2H21.0156V4ZM21.7227 3.70711L11.7227 13.7071L10.3085 12.2929L20.3085 2.29289L21.7227 3.70711Z"
		fill="currentColor" />
	<path
		d="M20.0156 15V15C20.0156 16.8692 20.0156 17.8038 19.6137 18.5C19.3504 18.9561 18.9717 19.3348 18.5156 19.5981C17.8195 20 16.8849 20 15.0156 20H10.0156C7.1872 20 5.77298 20 4.8943 19.1213C4.01562 18.2426 4.01562 16.8284 4.01562 14V9C4.01562 7.13077 4.01562 6.19615 4.41755 5.5C4.68085 5.04394 5.05957 4.66523 5.51563 4.40192C6.21178 4 7.14639 4 9.01562 4V4"
		stroke="currentColor" stroke-width="2" stroke-linecap="round" />
</svg>