<svg width="25" height="24" viewBox="0 0 25 24" fill="none" xmlns="http://www.w3.org/2000/svg">
	<path
		d="M20.5146 12.5H17.9562C17.2604 12.5 16.9126 12.5 16.6507 12.6888C16.3888 12.8775 16.2788 13.2075 16.0588 13.8675L15.9705 14.1325C15.7505 14.7925 15.6405 15.1225 15.3786 15.3112C15.1167 15.5 14.7689 15.5 14.0731 15.5H9.95617C9.26045 15.5 8.91258 15.5 8.6507 15.3112C8.38881 15.1225 8.27881 14.7925 8.0588 14.1325L7.9705 13.8675C7.75049 13.2075 7.64049 12.8775 7.3786 12.6888C7.11671 12.5 6.76885 12.5 6.07313 12.5H3.51465"
		stroke="currentColor" stroke-width="2" />
	<path d="M9.51465 9.5L12.0146 12M12.0146 12L14.5146 9.5M12.0146 12L12.0146 5" stroke="currentColor"
		stroke-width="2" />
	<path
		d="M6.51465 8.5L4.79711 9.64502C4.32823 9.95761 4.09379 10.1139 3.92407 10.3204C3.77381 10.5032 3.66108 10.7139 3.59232 10.9403C3.51465 11.196 3.51465 11.4778 3.51465 12.0413V15.62C3.51465 16.6281 3.51465 17.1321 3.71084 17.5172C3.88341 17.8559 4.15877 18.1312 4.49747 18.3038C4.88251 18.5 5.38655 18.5 6.39465 18.5H17.6346C18.6427 18.5 19.1468 18.5 19.5318 18.3038C19.8705 18.1312 20.1459 17.8559 20.3185 17.5172C20.5146 17.1321 20.5146 16.6281 20.5146 15.62V12.0413C20.5146 11.4778 20.5146 11.196 20.437 10.9403C20.3682 10.7139 20.2555 10.5032 20.1052 10.3204C19.9355 10.1139 19.7011 9.95761 19.2322 9.64502L17.5146 8.5"
		stroke="currentColor" stroke-width="2" stroke-linecap="round" />
</svg>