<svg width="25" height="24" viewBox="0 0 25 24" fill="none" xmlns="http://www.w3.org/2000/svg">
<path d="M10.0244 15L10.0244 12" stroke="#373F50" stroke-width="2" stroke-linecap="round"/>
<path d="M14.0244 15L14.0244 12" stroke="#373F50" stroke-width="2" stroke-linecap="round"/>
<path d="M3.02441 7H21.0244V7C20.0925 7 19.6266 7 19.259 7.15224C18.769 7.35523 18.3796 7.74458 18.1767 8.23463C18.0244 8.60218 18.0244 9.06812 18.0244 10V16C18.0244 17.8856 18.0244 18.8284 17.4386 19.4142C16.8528 20 15.91 20 14.0244 20H10.0244C8.1388 20 7.19599 20 6.6102 19.4142C6.02441 18.8284 6.02441 17.8856 6.02441 16V10C6.02441 9.06812 6.02441 8.60218 5.87217 8.23463C5.66919 7.74458 5.27984 7.35523 4.78978 7.15224C4.42224 7 3.9563 7 3.02441 7V7Z" stroke="#373F50" stroke-width="2" stroke-linecap="round"/>
<path d="M10.0926 3.37059C10.2065 3.26427 10.4576 3.17033 10.8069 3.10332C11.1562 3.03632 11.5841 3 12.0244 3C12.4647 3 12.8926 3.03632 13.2419 3.10332C13.5912 3.17033 13.8423 3.26427 13.9563 3.37059" stroke="#373F50" stroke-width="2" stroke-linecap="round"/>
</svg>
