<svg width="25" height="24" viewBox="0 0 25 24" fill="none" xmlns="http://www.w3.org/2000/svg">
<path d="M10.0156 19L9.30852 18.2929L8.60141 19L9.30852 19.7071L10.0156 19ZM13.3085 14.2929L9.30852 18.2929L10.7227 19.7071L14.7227 15.7071L13.3085 14.2929ZM9.30852 19.7071L13.3085 23.7071L14.7227 22.2929L10.7227 18.2929L9.30852 19.7071Z" fill="#373F50"/>
<path d="M5.95345 15.5C5.18298 14.1655 4.87438 12.6141 5.07551 11.0863C5.27664 9.55856 5.97627 8.13986 7.06588 7.05025C8.15549 5.96064 9.57418 5.26102 11.1019 5.05989C12.6297 4.85875 14.1811 5.16735 15.5156 5.93782C16.8501 6.70829 17.8931 7.89757 18.4828 9.32122C19.0725 10.7449 19.1759 12.3233 18.7771 13.8117C18.3783 15.3002 17.4995 16.6154 16.277 17.5535C15.0544 18.4915 13.5566 19 12.0156 19" stroke="#373F50" stroke-width="2" stroke-linecap="round"/>
</svg>
