<svg width="121" height="20" viewBox="0 0 121 20" fill="none" xmlns="http://www.w3.org/2000/svg">
<g clip-path="url(#clip0_722_984)">
<path d="M112.78 7.56953C113.373 7.56953 113.958 7.56953 114.575 7.56953C114.575 7.97239 114.575 8.3829 114.575 8.78577C114.59 8.79322 114.598 8.79322 114.614 8.80067C114.676 8.71869 114.746 8.63651 114.809 8.56198C115.253 8.06948 115.76 7.66662 116.439 7.50245C117.04 7.36064 117.648 7.37555 118.241 7.53226C119.287 7.81588 120.028 8.44253 120.519 9.35299C120.824 9.91257 120.972 10.5022 120.995 11.1363C121.019 11.778 120.964 12.4047 120.722 13.0092C120.34 13.9643 119.693 14.6881 118.694 15.0835C118.304 15.2402 117.891 15.3297 117.461 15.3448C117.009 15.3522 116.564 15.3298 116.135 15.1806C115.8 15.0611 115.503 14.8746 115.238 14.6508C115.02 14.4643 114.809 14.2629 114.583 14.054C114.583 15.2106 114.583 16.3521 114.583 17.5013C113.974 17.5013 113.381 17.5013 112.78 17.5013C112.78 14.1954 112.78 10.8899 112.78 7.56953ZM119.131 11.375C119.146 11.0541 119.084 10.7258 118.975 10.4049C118.6 9.34535 117.469 8.70359 116.306 8.99465C115.495 9.19609 114.98 9.71094 114.699 10.4496C114.528 10.8974 114.504 11.3524 114.574 11.8225C114.66 12.3896 114.91 12.8821 115.339 13.27C115.776 13.6654 116.306 13.852 116.915 13.8296C117.656 13.8072 118.249 13.5087 118.67 12.9268C119.006 12.4718 119.146 11.9569 119.131 11.375Z" fill="white"/>
<path d="M101 15.1879C100.376 15.1879 99.7825 15.1879 99.1818 15.1879C99.135 15.0088 99.1428 7.71135 99.1896 7.56955C99.7825 7.56955 100.376 7.56955 100.984 7.56955C100.984 7.9426 100.984 8.30819 100.984 8.67379C100.992 8.68124 101.007 8.68125 101.015 8.6887C101.07 8.62162 101.124 8.54689 101.187 8.47981C101.616 7.97986 102.123 7.59936 102.794 7.47245C103.597 7.3232 104.37 7.41283 105.041 7.89023C105.314 8.0842 105.54 8.33055 105.712 8.62142C105.735 8.65869 105.758 8.69595 105.79 8.74832C105.868 8.65123 105.938 8.56925 106.016 8.48707C106.507 7.98712 107.077 7.59171 107.802 7.47226C108.543 7.34536 109.269 7.39028 109.948 7.73352C110.463 7.99477 110.806 8.39763 111.024 8.91249C111.204 9.33026 111.274 9.77059 111.274 10.2258C111.282 11.8375 111.274 13.4493 111.274 15.061C111.274 15.0982 111.274 15.1355 111.266 15.1804C110.666 15.1804 110.073 15.1804 109.456 15.1804C109.456 15.1133 109.456 15.0386 109.456 14.9715C109.456 13.6284 109.456 12.2778 109.456 10.9348C109.456 10.6214 109.425 10.3154 109.324 10.0097C109.066 9.22611 108.341 8.91288 107.553 9.02468C107.053 9.09176 106.679 9.33065 106.414 9.72606C106.258 9.95731 106.187 10.2186 106.156 10.4871C106.133 10.7109 106.125 10.9423 106.117 11.1661C106.117 12.4345 106.117 13.6957 106.117 14.9641C106.117 15.0312 106.117 15.0984 106.117 15.1804C105.517 15.1804 104.924 15.1804 104.3 15.1804C104.3 15.1133 104.3 15.0461 104.3 14.9715C104.3 13.5613 104.3 12.1585 104.3 10.7483C104.3 10.3976 104.229 10.0693 104.066 9.75587C103.871 9.39027 103.566 9.15158 103.153 9.05449C102.583 8.92759 102.061 9.00232 101.6 9.36792C101.257 9.64407 101.093 10.0097 101.031 10.42C101 10.6214 100.992 10.8229 100.992 11.0243C100.992 12.3376 100.992 13.6582 100.992 14.9715C101 15.0386 101 15.1057 101 15.1879Z" fill="white"/>
<path d="M95.8039 7.56953C96.4358 7.56953 97.0288 7.56953 97.6373 7.56953C97.6373 10.1066 97.6373 12.6359 97.6373 15.1804C97.0366 15.1804 96.4358 15.1804 95.8117 15.1804C95.8117 14.8148 95.8117 14.4417 95.8117 14.0612C95.6011 14.2701 95.4217 14.4641 95.2267 14.6506C94.7429 15.1133 94.15 15.3446 93.4635 15.3446C93.089 15.3446 92.7223 15.3371 92.3557 15.2326C91.5442 15.0013 91.0217 14.4865 90.7096 13.7476C90.5535 13.382 90.4834 12.9941 90.4834 12.5985C90.4756 10.9568 90.4756 9.31534 90.4756 7.67387C90.4756 7.64406 90.4834 7.61425 90.4834 7.56934C91.0918 7.56934 91.6849 7.56934 92.3089 7.56934C92.3089 7.65132 92.3167 7.71859 92.3167 7.79313C92.3167 9.15117 92.3167 10.5092 92.3167 11.8673C92.3167 12.218 92.3479 12.5612 92.5039 12.8895C92.7613 13.4417 93.2217 13.7029 93.8301 13.7476C94.1578 13.77 94.4777 13.7476 94.7897 13.6133C95.1953 13.4342 95.4762 13.1506 95.6479 12.7626C95.7572 12.509 95.8039 12.2478 95.8039 11.9716C95.8039 10.5838 95.8039 9.19589 95.8039 7.80058C95.8039 7.7337 95.8039 7.66642 95.8039 7.56953Z" fill="white"/>
<path d="M87.0819 5.09204C87.7295 5.09204 88.3535 5.09204 88.9934 5.09204C89.0011 5.15167 89.0011 5.20404 89.0011 5.25621C89.0011 7.42018 89.0089 9.58395 89.0011 11.7479C89.0011 12.4568 88.8763 13.1507 88.5096 13.785C88.1351 14.4342 87.589 14.8743 86.8635 15.1207C86.2237 15.337 85.5685 15.3743 84.8975 15.3147C83.696 15.2101 82.8066 14.6133 82.081 13.7328C82.081 13.7254 82.081 13.7179 82.0732 13.6955C82.4711 13.315 82.8689 12.9196 83.3059 12.4942C83.3371 12.5464 83.3605 12.5913 83.3994 12.6286C83.6568 12.9345 83.9533 13.2031 84.3044 13.4196C84.5776 13.5838 84.8739 13.6657 85.1938 13.6808C85.4356 13.6957 85.6776 13.6957 85.9193 13.6287C86.5044 13.4645 86.8477 13.0765 86.9882 12.5244C87.0427 12.3081 87.0739 12.0766 87.0739 11.8529C87.0817 9.67398 87.0817 7.50275 87.0817 5.32388C87.0819 5.24876 87.0819 5.18168 87.0819 5.09204Z" fill="white"/>
<path d="M79.5607 8.74835C79.5607 7.35304 79.5607 6.0099 79.5607 4.65186C80.1614 4.65186 80.7544 4.65186 81.3629 4.65186C81.3629 8.15877 81.3629 11.6659 81.3629 15.1802C80.77 15.1802 80.1691 15.1802 79.5607 15.1802C79.5607 14.7774 79.5607 14.3743 79.5607 13.9715C79.5529 13.964 79.5373 13.964 79.5295 13.9565C79.475 14.0162 79.428 14.0835 79.3735 14.1431C79.0068 14.5608 78.5856 14.919 78.0551 15.1355C77.5246 15.3593 76.9707 15.3817 76.409 15.322C75.6133 15.2324 74.9189 14.9266 74.3494 14.3745C73.7096 13.7551 73.3274 13.009 73.1949 12.1584C73.0778 11.4048 73.1012 10.6585 73.351 9.93478C73.6553 9.05433 74.178 8.33058 75.036 7.86044C75.7148 7.48739 76.4559 7.35304 77.2438 7.42012C78.1488 7.49465 78.8198 7.96479 79.4049 8.57673C79.4438 8.6289 79.4828 8.67362 79.5607 8.74835ZM77.4153 13.8371C77.9146 13.8371 78.4685 13.5984 78.9209 13.1357C79.7401 12.2776 79.7869 10.8001 79.1081 9.8675C78.1174 8.50946 76.0109 8.65126 75.2542 10.1362C74.9109 10.8078 74.8798 11.5092 75.0904 12.218C75.3791 13.1953 76.2295 13.8222 77.4153 13.8371Z" fill="white"/>
<path d="M66.7738 15.1877C66.1498 15.1877 65.5567 15.1877 64.9482 15.1877C64.9482 12.6507 64.9482 10.1213 64.9482 7.57684C65.5489 7.57684 66.1498 7.57684 66.766 7.57684C66.766 7.94989 66.766 8.31549 66.766 8.68108C66.7816 8.68854 66.7894 8.69599 66.805 8.69599C66.8517 8.64382 66.8907 8.58399 66.9376 8.53182C67.3744 7.98715 67.9205 7.59919 68.6383 7.46484C69.4184 7.32303 70.1753 7.39776 70.8695 7.80063C71.4 8.11405 71.7277 8.58419 71.9227 9.14376C72.0554 9.53172 72.1099 9.93478 72.1099 10.3451C72.1099 11.912 72.1099 13.479 72.1099 15.0459C72.1099 15.0906 72.1099 15.1279 72.1099 15.1802C71.4937 15.1802 70.8928 15.1802 70.2766 15.1802C70.2766 15.1057 70.2766 15.0384 70.2766 14.9714C70.2766 13.6282 70.2766 12.2776 70.2766 10.9347C70.2766 10.5914 70.2532 10.2631 70.1205 9.94224C69.9021 9.41993 69.5043 9.11395 68.919 9.02451C68.6459 8.97979 68.3807 8.98725 68.1156 9.04688C67.4056 9.21104 66.9844 9.65882 66.8361 10.3302C66.7894 10.5465 66.7816 10.778 66.7816 11.0092C66.7738 12.33 66.7816 13.6506 66.7816 14.9714C66.7738 15.0384 66.7738 15.1055 66.7738 15.1877Z" fill="white"/>
<path d="M61.7573 10.8152C61.7339 10.584 61.7261 10.3749 61.6793 10.1735C61.5233 9.51681 61.0475 9.18102 60.3921 9.06922C59.6588 8.94978 58.9332 9.01705 58.2233 9.23339C57.9893 9.30792 57.7551 9.3901 57.49 9.47954C57.3261 9.01686 57.1623 8.56182 56.9984 8.09169C57.3729 7.91261 57.7629 7.77826 58.153 7.67391C59.1594 7.41266 60.1813 7.35303 61.2034 7.56192C62.4283 7.80807 63.1928 8.54692 63.4346 9.7408C63.5047 10.0617 63.5361 10.3975 63.5361 10.7258C63.5439 12.1584 63.5439 13.5911 63.5439 15.0237C63.5439 15.0684 63.5439 15.1208 63.5439 15.1804C62.9354 15.1804 62.3345 15.1804 61.7261 15.1804C61.7261 14.8894 61.7261 14.606 61.7261 14.2851C61.6638 14.3372 61.6246 14.3671 61.5934 14.3971C60.9772 14.9865 60.2516 15.3222 59.37 15.3523C58.8006 15.3672 58.2545 15.315 57.7317 15.0835C56.8112 14.6732 56.3274 13.9868 56.304 13.0167C56.2962 12.472 56.4289 11.972 56.78 11.5317C57.0999 11.1363 57.5211 10.89 58.0049 10.7407C58.6759 10.5244 59.3625 10.4871 60.0566 10.5318C60.5871 10.5616 61.1021 10.6587 61.6014 10.8005C61.6402 10.8078 61.6791 10.8078 61.7573 10.8152ZM61.7884 11.9642C61.0863 11.7255 60.3997 11.621 59.6898 11.6582C59.3231 11.6806 58.9642 11.7479 58.6443 11.9344C58.2309 12.1805 58.0748 12.5538 58.1138 13.0014C58.145 13.4117 58.3789 13.6804 58.7536 13.852C58.8393 13.8893 58.933 13.9265 59.0188 13.9491C59.682 14.1133 60.3138 14.0387 60.9224 13.7328C61.3359 13.5239 61.6246 13.2104 61.7181 12.7701C61.7729 12.5238 61.7651 12.2478 61.7884 11.9642Z" fill="white"/>
<path d="M49.9075 8.7258C49.9777 8.65127 50.0402 8.57654 50.1103 8.50201C50.6097 7.9797 51.187 7.58429 51.9281 7.46484C52.6848 7.34539 53.4259 7.38286 54.1125 7.76336C54.682 8.07679 55.0331 8.55438 55.2203 9.14377C55.3452 9.52427 55.3841 9.91223 55.3841 10.3078C55.3841 11.8971 55.3841 13.479 55.3841 15.0684C55.3841 15.1057 55.3841 15.143 55.3763 15.1879C54.7757 15.1879 54.1826 15.1879 53.5586 15.1879C53.5586 15.1208 53.5586 15.061 53.5586 14.9939C53.5586 13.6433 53.5586 12.2853 53.5586 10.9349C53.5586 10.6289 53.5352 10.3304 53.4415 10.0395C53.1841 9.2336 52.5132 8.92782 51.7331 9.00981C50.8281 9.09944 50.3755 9.71864 50.2742 10.3977C50.243 10.5916 50.2352 10.7856 50.2352 10.9871C50.2352 12.3153 50.2352 13.6433 50.2352 14.9716C50.2352 15.0386 50.2352 15.1059 50.2352 15.1804C49.619 15.1804 49.0181 15.1804 48.4019 15.1804C48.4019 15.1134 48.4019 15.0461 48.4019 14.979C48.4019 13.6284 48.4019 12.2704 48.4019 10.92C48.4019 10.614 48.3863 10.308 48.2848 10.0097C48.0274 9.21869 47.3409 8.92782 46.5763 9.00236C45.6714 9.09199 45.1954 9.76336 45.1097 10.5022C45.0863 10.7185 45.0785 10.9425 45.0785 11.1663C45.0785 12.4347 45.0785 13.6959 45.0785 14.9643C45.0785 15.0314 45.0785 15.0987 45.0785 15.1806C44.4779 15.1806 43.877 15.1806 43.2686 15.1806C43.2686 12.6511 43.2686 10.1142 43.2686 7.56978C43.8614 7.56978 44.4545 7.56978 45.0707 7.56978C45.0707 7.94283 45.0707 8.30097 45.0707 8.71894C45.1409 8.63695 45.18 8.59204 45.219 8.54732C45.5934 8.08463 46.0302 7.69667 46.6311 7.53996C47.6766 7.25635 48.6439 7.38325 49.4398 8.1519C49.6112 8.31548 49.7437 8.51692 49.9075 8.7258Z" fill="white"/>
<path d="M36.3094 12.009C36.442 13.0536 37.191 13.7699 38.1505 13.9043C39.0711 14.0386 39.8589 13.7848 40.5455 13.1954C40.6079 13.1432 40.6704 13.0909 40.7405 13.0238C41.0994 13.3298 41.4505 13.6206 41.8094 13.9266C41.6299 14.1653 41.4037 14.3518 41.1775 14.5235C40.2959 15.2025 39.2739 15.4337 38.1661 15.3443C37.3468 15.2772 36.6057 15.0085 35.9583 14.5235C35.1938 13.949 34.7334 13.1878 34.554 12.285C34.3667 11.3672 34.4447 10.4568 34.8661 9.59867C35.4356 8.4346 36.3717 7.6736 37.7059 7.45726C38.8215 7.27073 39.8669 7.47962 40.7641 8.18845C41.2635 8.58386 41.599 9.08382 41.8329 9.65085C42.1061 10.3224 42.2074 11.0238 42.1762 11.7475C42.1762 11.8295 42.1529 11.9043 42.1451 12.0011C40.1946 12.009 38.2598 12.009 36.3094 12.009ZM40.3897 10.8302C40.3117 10.5615 40.2648 10.3079 40.1713 10.0692C39.789 9.09166 38.8059 8.62917 37.7529 8.91259C37.121 9.08421 36.7308 9.52453 36.4734 10.0841C36.3641 10.3154 36.294 10.5617 36.2784 10.8302C37.6514 10.8302 39.0009 10.8302 40.3897 10.8302Z" fill="white"/>
<path d="M24.0684 15.1877C24.0684 11.8226 24.0684 8.47218 24.0684 5.09961C24.1151 5.09216 24.1621 5.08471 24.2088 5.08471C25.5584 5.08471 26.9082 5.06235 28.2578 5.09216C29.8571 5.12943 31.2536 5.66664 32.3536 6.81581C33.009 7.50228 33.3991 8.32311 33.5551 9.24829C33.7268 10.2705 33.6253 11.2704 33.1807 12.218C32.5878 13.4864 31.5735 14.3296 30.2396 14.8221C29.5608 15.0757 28.8586 15.1877 28.1331 15.1951C26.838 15.1951 25.5352 15.1951 24.24 15.1951C24.1777 15.1951 24.1309 15.1877 24.0684 15.1877ZM25.9253 13.5609C25.9798 13.5684 26.019 13.5684 26.0657 13.5684C26.7212 13.5684 27.3764 13.5684 28.0318 13.5684C28.5155 13.5684 28.9913 13.5013 29.4439 13.3446C30.1694 13.091 30.7467 12.6656 31.1445 12.0313C31.6984 11.1434 31.7921 10.1956 31.5502 9.21082C31.3551 8.44236 30.9261 7.81551 30.2551 7.35283C29.6701 6.94996 29.0147 6.74088 28.2969 6.71852C27.548 6.69616 26.7913 6.71107 26.0424 6.71107C26.0034 6.71107 25.9722 6.71852 25.9253 6.71852C25.9253 9.00194 25.9253 11.2777 25.9253 13.5609Z" fill="white"/>
<path d="M0.00820283 0.00331252C0.0861298 0.00331252 0.148676 0.00331252 0.211018 0.00331252C4.28352 0.00331252 8.36361 -0.00414065 12.4361 0.00331252C13.7857 0.00331252 14.9872 0.428534 16.0249 1.25682C17.1482 2.15963 17.8426 3.31625 18.1937 4.67429C18.2171 4.77138 18.2404 4.86828 18.2638 4.95791C18.2794 5.04754 18.295 5.13698 18.3028 5.22662C18.1701 5.26388 14.753 5.28624 14.4019 5.24152C14.3707 5.18935 14.3318 5.12207 14.2926 5.06245C13.9493 4.48051 13.4422 4.12237 12.7478 4.01783C12.6621 4.00292 12.5684 4.01037 12.4747 4.01037C9.63484 4.01037 6.79523 4.01037 3.94761 4.01037C3.89307 4.01037 3.83831 4.01037 3.76038 4.01037C3.76038 9.34547 3.76038 14.6657 3.76038 20.0006C2.50433 20.0006 1.25606 20.0006 0 20.0006C0.00820283 13.3447 0.00820283 6.689 0.00820283 0.00331252Z" fill="white"/>
<path d="M14.6045 19.5676C14.6045 19.4931 14.6045 19.4258 14.6045 19.3587C14.6045 15.1504 14.6045 10.9345 14.6045 6.7262C14.6045 6.40532 14.5967 6.09189 14.5889 5.7561C15.8215 5.7561 17.0776 5.7561 18.3493 5.7561C18.357 5.92027 18.3726 6.08444 18.3726 6.2486C18.3726 7.55448 18.3648 8.8527 18.3648 10.1586C18.3648 11.3525 18.3804 12.5463 18.3726 13.7328C18.3726 15.2773 17.9045 16.6726 16.8982 17.8889C16.3131 18.5977 15.5954 19.1573 14.7293 19.538C14.6982 19.5529 14.667 19.5604 14.6436 19.5753C14.6434 19.5751 14.6356 19.5676 14.6045 19.5676Z" fill="white"/>
<path d="M14.0976 19.7616C13.4266 19.978 12.74 20.0152 12.0303 19.9854C12.0303 18.5827 12.0303 17.1948 12.0303 15.7846C12.4437 15.5084 12.8415 15.1877 13.2004 14.8219C13.5515 14.4638 13.848 14.0609 14.0976 13.6206C14.0976 15.6653 14.0976 17.7022 14.0976 19.7616Z" fill="white"/>
<path d="M11.5156 16.1426C11.5156 17.4035 11.5156 18.687 11.5156 19.9853C10.829 19.9853 10.1502 19.9853 9.44824 19.9853C9.44824 19.0003 9.44824 18.0155 9.44824 17.0528C10.1424 16.7471 10.829 16.4486 11.5156 16.1426Z" fill="white"/>
<path d="M6.85742 19.9857C6.85742 19.2098 6.85742 18.4486 6.85742 17.7025C7.55179 17.5383 8.23058 17.3741 8.92474 17.21C8.92474 18.1277 8.92474 19.0456 8.92474 19.9857C8.23837 19.9857 7.55958 19.9857 6.85742 19.9857Z" fill="white"/>
<path d="M4.27539 17.956C4.96197 17.8964 5.64854 17.844 6.33492 17.7844C6.33492 18.5082 6.33492 19.2394 6.33492 19.9857C5.64834 19.9857 4.96176 19.9857 4.27539 19.9857C4.27539 19.3066 4.27539 18.6276 4.27539 17.956Z" fill="white"/>
</g>
<defs>
<clipPath id="clip0_722_984">
<rect width="121" height="20" fill="white"/>
</clipPath>
</defs>
</svg>
