<svg width="24" height="24" viewBox="0 0 24 24" fill="none" xmlns="http://www.w3.org/2000/svg">
	<circle cx="11.6755" cy="11.467" r="8.61645" transform="rotate(-90.3919 11.6755 11.467)" stroke="currentColor"
		stroke-width="1.5" />
	<path
		d="M9.31827 3.38752C8.58113 4.21716 7.9823 5.31738 7.56341 6.61173C7.14452 7.90607 6.91561 9.36347 6.8926 10.8826C6.86959 12.4018 7.05303 13.9462 7.43017 15.4086C7.80731 16.871 8.3691 18.2163 9.07649 19.3509"
		stroke="currentColor" stroke-width="1.43608" />
	<path
		d="M14.0589 3.46613C14.8031 4.44978 15.3949 5.698 15.79 7.1173C16.1851 8.53659 16.3731 10.0901 16.3401 11.6616C16.3071 13.233 16.0539 14.7816 15.5994 16.1913C15.1449 17.601 14.501 18.8353 13.7158 19.8016"
		stroke="currentColor" stroke-width="1.43608" />
	<path d="M3.05859 11.526L20.2911 11.4081" stroke="currentColor" stroke-width="1.43608" />
	<path d="M11.6165 2.85075L11.7344 20.0833" stroke="currentColor" stroke-width="1.43608" />
	<path
		d="M18.0659 16.5535C17.5702 15.8898 16.632 15.756 15.9705 16.2547C15.309 16.7534 15.1746 17.6957 15.6704 18.3594L18.0659 16.5535ZM17.8958 21.3385L18.7935 22.5402L21.1891 20.7343L20.2914 19.5326L17.8958 21.3385ZM15.6704 18.3594L17.8958 21.3385L20.2914 19.5326L18.0659 16.5535L15.6704 18.3594Z"
		fill="currentColor" />
	<path
		d="M15.5082 21.3429L15.1065 15.3371L20.6877 17.5912C20.9064 17.6795 20.9423 17.974 20.7513 18.1123L15.9835 21.5658C15.7925 21.7042 15.5239 21.5782 15.5082 21.3429Z"
		fill="currentColor" stroke="currentColor" stroke-linecap="round" stroke-linejoin="round" />
</svg>