<svg width="21" height="17" viewBox="0 0 21 17" fill="none" xmlns="http://www.w3.org/2000/svg">
	<path d="M0 3.94531C3.11377 3.94531 3.11377 11.9335 0 11.9335" stroke="currentColor" stroke-width="1.5" />
	<path d="M4.99023 3.93933V11.9393" stroke="currentColor" stroke-linecap="round" />
	<path fill-rule="evenodd" clip-rule="evenodd"
		d="M15 17C18.3137 17 21 14.3137 21 11C21 7.68629 18.3137 5 15 5C11.6863 5 9 7.68629 9 11C9 14.3137 11.6863 17 15 17ZM19.3636 11C19.3636 13.41 17.41 15.3636 15 15.3636C12.59 15.3636 10.6364 13.41 10.6364 11C10.6364 8.59003 12.59 6.63636 15 6.63636C17.41 6.63636 19.3636 8.59003 19.3636 11ZM15.8182 8.81818C15.8182 8.36631 15.4519 8 15 8C14.5481 8 14.1818 8.36631 14.1818 8.81818V11C14.1818 11.3522 14.4072 11.6648 14.7413 11.7762L16.3776 12.3217C16.8063 12.4645 17.2697 12.2329 17.4126 11.8042C17.5555 11.3755 17.3238 10.9122 16.8951 10.7693L15.8182 10.4103V8.81818Z"
		fill="currentColor" />
	<path fill-rule="evenodd" clip-rule="evenodd"
		d="M0.0185547 0.75C0.0185547 0.335786 0.354341 0 0.768555 0H19.2117C19.6259 0 19.9617 0.335786 19.9617 0.75V10.9093C19.816 9.79809 19.2648 8.81447 18.4617 8.11184V1.5H1.51855V5.42209C1.17062 4.9973 0.732397 4.74408 0.256238 4.74408C0.175845 4.74408 0.0965331 4.7513 0.0185547 4.76534V0.75ZM12.0412 14.3787H1.51855V10.4566C1.17062 10.8814 0.732397 11.1346 0.256238 11.1346C0.175845 11.1346 0.0965331 11.1274 0.0185547 11.1133V15.1287C0.0185547 15.5429 0.354341 15.8787 0.768555 15.8787H14.4578C13.496 15.6506 12.6536 15.1138 12.0412 14.3787ZM16.5424 15.8787H19.2117C19.6259 15.8787 19.9617 15.5429 19.9617 15.1287V12.0907C19.7178 13.9504 18.3384 15.4528 16.5424 15.8787Z"
		fill="currentColor" />
</svg>