<svg width="24" height="24" viewBox="0 0 24 24" fill="none" xmlns="http://www.w3.org/2000/svg">
<circle cx="11.4705" cy="4.8992" r="2.6492" stroke="#373F50" stroke-width="1.5"/>
<path d="M12.7154 14.087L11.9677 14.1446L11.8551 15.6403L12.6029 15.5827L12.7154 14.087ZM13.1014 15.5443C13.5144 15.5125 13.8744 15.1519 13.9055 14.7388C13.9366 14.3258 13.627 14.0167 13.214 14.0485L13.1014 15.5443ZM12.6029 15.5827L13.1014 15.5443L13.214 14.0485L12.7154 14.087L12.6029 15.5827Z" fill="#373F50"/>
<path d="M12.7565 11.7308L12.0087 11.7884L11.8961 13.2841L12.6439 13.2265L12.7565 11.7308ZM13.4416 13.1651C13.8546 13.1333 14.2145 12.7726 14.2456 12.3596C14.2767 11.9465 13.9671 11.6375 13.5541 11.6693L13.4416 13.1651ZM12.6439 13.2265L13.4416 13.1651L13.5541 11.6693L12.7565 11.7308L12.6439 13.2265Z" fill="#373F50"/>
<path d="M11.6865 8.09424L11.7457 16.094" stroke="#373F50" stroke-width="2" stroke-linecap="round"/>
<path fill-rule="evenodd" clip-rule="evenodd" d="M9.07129 15.187C7.27788 15.4506 6.07129 16.0129 6.07129 17C6.07129 18.4727 8.75758 19 12.0713 19C15.385 19 18.0713 18.4727 18.0713 17C18.0713 16.0129 16.8647 15.4506 15.0713 15.187V16.1986C15.428 16.2557 15.7508 16.3253 16.0346 16.4079C16.5121 16.5468 16.8016 16.7009 16.9544 16.83C17.0733 16.9304 17.0719 16.9775 17.0714 16.9967L17.0713 17L17.0714 17.0032C17.0719 17.0224 17.0733 17.0695 16.9544 17.1699C16.8016 17.299 16.5121 17.4531 16.0346 17.5921C15.0849 17.8684 13.6967 18 12.0713 18C10.4458 18 9.05766 17.8684 8.10801 17.5921C7.63046 17.4531 7.341 17.299 7.1882 17.1699C7.06931 17.0695 7.07067 17.0224 7.07122 17.0032L7.07129 17L7.07122 16.9967C7.07067 16.9775 7.06931 16.9304 7.1882 16.83C7.341 16.7009 7.63046 16.5468 8.10801 16.4079C8.39174 16.3253 8.71463 16.2557 9.07129 16.1986V15.187Z" fill="#373F50"/>
<path fill-rule="evenodd" clip-rule="evenodd" d="M9.07143 12.677C7.7452 12.8386 6.53352 13.1064 5.51499 13.4629C4.64755 13.7665 3.83865 14.1625 3.2173 14.6766C2.60548 15.1829 2 15.9604 2 17C2 18.0396 2.60548 18.8171 3.2173 19.3234C3.83865 19.8376 4.64755 20.2335 5.51499 20.5371C7.26371 21.1492 9.58183 21.5 12.0714 21.5C14.561 21.5 16.8791 21.1492 18.6279 20.5371C19.4953 20.2335 20.3042 19.8376 20.9256 19.3234C21.5374 18.8171 22.1429 18.0396 22.1429 17C22.1429 15.9604 21.5374 15.1829 20.9256 14.6766C20.3042 14.1625 19.4953 13.7665 18.6279 13.4629C17.6093 13.1064 16.3977 12.8386 15.0714 12.677V14.1889C18.3257 14.6145 20.6429 15.7126 20.6429 17C20.6429 18.6569 16.8053 20 12.0714 20C7.33756 20 3.5 18.6569 3.5 17C3.5 15.7126 5.81714 14.6145 9.07143 14.1889V12.677Z" fill="#373F50"/>
</svg>
