<svg width="24" height="24" viewBox="0 0 24 24" fill="currentColor" xmlns="http://www.w3.org/2000/svg">
	<path
		d="M20.6494 20.9999V20.0666C20.6494 19.5715 20.4387 19.0968 20.0636 18.7467C19.6885 18.3966 19.1798 18.2 18.6494 18.2H14.6494C14.119 18.2 13.6103 18.3966 13.2352 18.7467C12.8601 19.0968 12.6494 19.5715 12.6494 20.0666V20.9999"
		stroke="currentColor" stroke-width="1.14314" stroke-linecap="round" stroke-linejoin="round" />
	<path
		d="M16.6494 17C17.754 17 18.6494 16.1046 18.6494 15C18.6494 13.8954 17.754 13 16.6494 13C15.5448 13 14.6494 13.8954 14.6494 15C14.6494 16.1046 15.5448 17 16.6494 17Z"
		stroke="currentColor" stroke-width="1.14314" stroke-linecap="round" stroke-linejoin="round" />
	<path
		d="M6 9.99999C7.10456 9.99999 7.99999 9.10456 7.99999 8C7.99999 6.89543 7.10456 6 6 6C4.89543 6 4 6.89543 4 8C4 9.10456 4.89543 9.99999 6 9.99999Z"
		stroke="currentColor" stroke-width="1.14314" stroke-linecap="round" stroke-linejoin="round" />
	<path
		d="M18 9.99999C19.1046 9.99999 20 9.10456 20 8C20 6.89543 19.1046 6 18 6C16.8954 6 16 6.89543 16 8C16 9.10456 16.8954 9.99999 18 9.99999Z"
		stroke="currentColor" stroke-width="1.14314" stroke-linecap="round" stroke-linejoin="round" />
	<path
		d="M11 20.9999V20.0666C11 19.5715 10.7893 19.0968 10.4142 18.7467C10.0391 18.3966 9.53042 18.2 8.99999 18.2H5C4.46956 18.2 3.96086 18.3966 3.58579 18.7467C3.21071 19.0968 3 19.5715 3 20.0666V20.9999"
		stroke="currentColor" stroke-width="1.14314" stroke-linecap="round" stroke-linejoin="round" />
	<path
		d="M7 17C8.10456 17 8.99999 16.1046 8.99999 15C8.99999 13.8954 8.10456 13 7 13C5.89543 13 5 13.8954 5 15C5 16.1046 5.89543 17 7 17Z"
		stroke="currentColor" stroke-width="1.14314" stroke-linecap="round" stroke-linejoin="round" />
	<path
		d="M12 13C13.1046 13 14 12.1046 14 11C14 9.89543 13.1046 9 12 9C10.8954 9 10 9.89543 10 11C10 12.1046 10.8954 13 12 13Z"
		stroke="currentColor" stroke-width="1.14314" stroke-linecap="round" stroke-linejoin="round" />
	<path
		d="M12 6.99999C13.1046 6.99999 14 6.10456 14 5C14 3.89543 13.1046 3 12 3C10.8954 3 10 3.89543 10 5C10 6.10456 10.8954 6.99999 12 6.99999Z"
		stroke="currentColor" stroke-width="1.14314" stroke-linecap="round" stroke-linejoin="round" />
</svg>