<svg width="24" height="24" viewBox="0 0 24 24" fill="none" xmlns="http://www.w3.org/2000/svg">
<mask id="path-1-inside-1_273_755" fill="white">
<path fill-rule="evenodd" clip-rule="evenodd" d="M19.8669 6.77946C19.2166 6.96617 18.9565 7.75482 19.2694 8.35477C19.8523 9.4724 20.1818 10.7432 20.1818 12.0909C20.1818 16.5594 16.5594 20.1818 12.0909 20.1818C7.62242 20.1818 4 16.5594 4 12.0909C4 7.62242 7.62242 4 12.0909 4C12.5931 4 13.0317 3.61349 13.0318 3.1113L13.0318 2.94473C13.0319 2.43402 12.6426 2.00211 12.1319 2.00008C12.1182 2.00003 12.1046 2 12.0909 2C6.51785 2 2 6.51785 2 12.0909C2 17.664 6.51785 22.1818 12.0909 22.1818C17.664 22.1818 22.1818 17.664 22.1818 12.0909C22.1818 10.3125 21.7218 8.64149 20.9141 7.19049C20.7093 6.82245 20.2718 6.66323 19.8669 6.77946Z"/>
</mask>
<path fill-rule="evenodd" clip-rule="evenodd" d="M19.8669 6.77946C19.2166 6.96617 18.9565 7.75482 19.2694 8.35477C19.8523 9.4724 20.1818 10.7432 20.1818 12.0909C20.1818 16.5594 16.5594 20.1818 12.0909 20.1818C7.62242 20.1818 4 16.5594 4 12.0909C4 7.62242 7.62242 4 12.0909 4C12.5931 4 13.0317 3.61349 13.0318 3.1113L13.0318 2.94473C13.0319 2.43402 12.6426 2.00211 12.1319 2.00008C12.1182 2.00003 12.1046 2 12.0909 2C6.51785 2 2 6.51785 2 12.0909C2 17.664 6.51785 22.1818 12.0909 22.1818C17.664 22.1818 22.1818 17.664 22.1818 12.0909C22.1818 10.3125 21.7218 8.64149 20.9141 7.19049C20.7093 6.82245 20.2718 6.66323 19.8669 6.77946Z" fill="#373F50"/>
<path d="M13.0318 3.1113L12.0318 3.11114L13.0318 3.1113ZM20.9141 7.19049L20.0404 7.67682L20.9141 7.19049ZM19.2694 8.35477L18.3828 8.81719L19.2694 8.35477ZM21.1818 12.0909C21.1818 10.5784 20.8116 9.14935 20.1561 7.89235L18.3828 8.81719C18.8929 9.79545 19.1818 10.908 19.1818 12.0909H21.1818ZM12.0909 21.1818C17.1117 21.1818 21.1818 17.1117 21.1818 12.0909H19.1818C19.1818 16.0071 16.0071 19.1818 12.0909 19.1818V21.1818ZM3 12.0909C3 17.1117 7.07014 21.1818 12.0909 21.1818V19.1818C8.17471 19.1818 5 16.0071 5 12.0909H3ZM12.0909 3C7.07014 3 3 7.07014 3 12.0909H5C5 8.17471 8.17471 5 12.0909 5V3ZM12.0318 2.94457L12.0318 3.11114L14.0318 3.11146L14.0318 2.94489L12.0318 2.94457ZM12.0909 3C12.1032 3 12.1156 3.00002 12.1279 3.00007L12.1358 1.00009C12.1209 1.00003 12.1059 1 12.0909 1V3ZM3 12.0909C3 7.07014 7.07014 3 12.0909 3V1C5.96557 1 1 5.96557 1 12.0909H3ZM12.0909 21.1818C7.07014 21.1818 3 17.1117 3 12.0909H1C1 18.2162 5.96557 23.1818 12.0909 23.1818V21.1818ZM21.1818 12.0909C21.1818 17.1117 17.1117 21.1818 12.0909 21.1818V23.1818C18.2162 23.1818 23.1818 18.2162 23.1818 12.0909H21.1818ZM20.0404 7.67682C20.7673 8.98292 21.1818 10.487 21.1818 12.0909H23.1818C23.1818 10.1379 22.6762 8.30006 21.7879 6.70415L20.0404 7.67682ZM12.0909 5C13.07 5 14.0316 4.23828 14.0318 3.11146L12.0318 3.11114C12.0318 3.08896 12.0371 3.06552 12.0463 3.04536C12.055 3.0264 12.0648 3.01519 12.0708 3.00966C12.0803 3.00086 12.0865 3 12.0909 3V5ZM21.7879 6.70415C21.3365 5.89318 20.4014 5.58563 19.591 5.81828L20.1429 7.74063C20.1374 7.74219 20.1253 7.7439 20.107 7.73688C20.0861 7.72887 20.0583 7.70896 20.0404 7.67682L21.7879 6.70415ZM14.0318 2.94489C14.032 1.94196 13.2541 1.00453 12.1358 1.00009L12.1279 3.00007C12.1132 3.00002 12.095 2.99649 12.0775 2.9886C12.0609 2.98115 12.0499 2.9721 12.0435 2.96524C12.0317 2.95264 12.0318 2.94409 12.0318 2.94457L14.0318 2.94489ZM20.1561 7.89235C20.1459 7.87274 20.1391 7.84937 20.1376 7.82321C20.136 7.79625 20.1403 7.77165 20.147 7.75317C20.1536 7.73493 20.16 7.72946 20.1579 7.73152C20.1567 7.73268 20.1541 7.73489 20.1503 7.73715C20.1485 7.73822 20.1468 7.73908 20.1453 7.73972C20.1446 7.74003 20.144 7.74026 20.1435 7.74041C20.1431 7.74057 20.1429 7.74063 20.1429 7.74063L19.591 5.81828C18.2194 6.21205 17.8344 7.76581 18.3828 8.81719L20.1561 7.89235Z" fill="#373F50" mask="url(#path-1-inside-1_273_755)"/>
<mask id="path-3-inside-2_273_755" fill="white">
<path fill-rule="evenodd" clip-rule="evenodd" d="M17.094 8.03647C16.4081 8.21884 16.1713 9.11478 16.5053 9.74103C16.879 10.4416 17.0908 11.2415 17.0908 12.0909C17.0908 14.8524 14.8522 17.0909 12.0908 17.0909C9.3294 17.0909 7.09082 14.8524 7.09082 12.0909C7.09082 9.32952 9.3294 7.09094 12.0908 7.09094C12.5454 7.09094 12.9575 6.75032 12.9588 6.29577L12.9597 6.00879C12.9611 5.51557 12.5934 5.0916 12.1002 5.09095C12.0971 5.09094 12.094 5.09094 12.0908 5.09094C8.22483 5.09094 5.09082 8.22495 5.09082 12.0909C5.09082 15.9569 8.22483 19.0909 12.0908 19.0909C15.9568 19.0909 19.0908 15.9569 19.0908 12.0909C19.0908 10.7286 18.7017 9.45719 18.0284 8.38176C17.8329 8.06943 17.4501 7.94179 17.094 8.03647Z"/>
</mask>
<path fill-rule="evenodd" clip-rule="evenodd" d="M17.094 8.03647C16.4081 8.21884 16.1713 9.11478 16.5053 9.74103C16.879 10.4416 17.0908 11.2415 17.0908 12.0909C17.0908 14.8524 14.8522 17.0909 12.0908 17.0909C9.3294 17.0909 7.09082 14.8524 7.09082 12.0909C7.09082 9.32952 9.3294 7.09094 12.0908 7.09094C12.5454 7.09094 12.9575 6.75032 12.9588 6.29577L12.9597 6.00879C12.9611 5.51557 12.5934 5.0916 12.1002 5.09095C12.0971 5.09094 12.094 5.09094 12.0908 5.09094C8.22483 5.09094 5.09082 8.22495 5.09082 12.0909C5.09082 15.9569 8.22483 19.0909 12.0908 19.0909C15.9568 19.0909 19.0908 15.9569 19.0908 12.0909C19.0908 10.7286 18.7017 9.45719 18.0284 8.38176C17.8329 8.06943 17.4501 7.94179 17.094 8.03647Z" fill="#373F50"/>
<path d="M12.9588 6.29577L11.9588 6.2929L12.9588 6.29577ZM18.0284 8.38176L18.876 7.85114L18.0284 8.38176ZM12.9597 6.00879L11.9597 6.00591L12.9597 6.00879ZM16.5053 9.74103L15.623 10.2117L16.5053 9.74103ZM18.0908 12.0909C18.0908 11.0734 17.8367 10.1122 17.3876 9.27038L15.623 10.2117C15.9213 10.7709 16.0908 11.4097 16.0908 12.0909H18.0908ZM12.0908 18.0909C15.4045 18.0909 18.0908 15.4047 18.0908 12.0909H16.0908C16.0908 14.3001 14.3 16.0909 12.0908 16.0909V18.0909ZM6.09082 12.0909C6.09082 15.4047 8.77711 18.0909 12.0908 18.0909V16.0909C9.88168 16.0909 8.09082 14.3001 8.09082 12.0909H6.09082ZM12.0908 6.09094C8.77711 6.09094 6.09082 8.77723 6.09082 12.0909H8.09082C8.09082 9.8818 9.88168 8.09094 12.0908 8.09094V6.09094ZM11.9597 6.00591L11.9588 6.2929L13.9588 6.29865L13.9597 6.01166L11.9597 6.00591ZM12.1015 4.09095C12.098 4.09094 12.0944 4.09094 12.0908 4.09094V6.09094C12.0935 6.09094 12.0962 6.09094 12.0989 6.09095L12.1015 4.09095ZM12.0908 4.09094C7.67254 4.09094 4.09082 7.67266 4.09082 12.0909H6.09082C6.09082 8.77723 8.77711 6.09094 12.0908 6.09094V4.09094ZM4.09082 12.0909C4.09082 16.5092 7.67254 20.0909 12.0908 20.0909V18.0909C8.77711 18.0909 6.09082 15.4047 6.09082 12.0909H4.09082ZM12.0908 20.0909C16.5091 20.0909 20.0908 16.5092 20.0908 12.0909H18.0908C18.0908 15.4047 15.4045 18.0909 12.0908 18.0909V20.0909ZM20.0908 12.0909C20.0908 10.5355 19.6459 9.08099 18.876 7.85114L17.1808 8.91238C17.7574 9.83338 18.0908 10.9217 18.0908 12.0909H20.0908ZM12.0908 8.09094C12.9837 8.09094 13.9556 7.41078 13.9588 6.29865L11.9588 6.2929C11.9591 6.20271 12.0036 6.14023 12.0311 6.11578C12.0533 6.09615 12.0724 6.09094 12.0908 6.09094V8.09094ZM18.876 7.85114C18.421 7.12426 17.5663 6.87618 16.8371 7.07005L17.351 9.0029C17.3365 9.00674 17.3136 9.00847 17.2835 8.99766C17.2505 8.9858 17.2095 8.95814 17.1808 8.91238L18.876 7.85114ZM13.9597 6.01166C13.9624 5.04749 13.2262 4.09243 12.1015 4.09095L12.0989 6.09095C12.0769 6.09092 12.0509 6.0857 12.0264 6.07444C12.0029 6.06371 11.987 6.05047 11.9775 6.04002C11.96 6.02087 11.9597 6.00761 11.9597 6.00591L13.9597 6.01166ZM17.3876 9.27038C17.3734 9.24371 17.3606 9.20475 17.3567 9.15602C17.3527 9.10684 17.3589 9.0606 17.3703 9.02486C17.3817 8.98901 17.3936 8.97736 17.3907 8.98039C17.3845 8.98693 17.3687 8.99819 17.351 9.0029L16.8371 7.07005C16.0945 7.26748 15.6468 7.84384 15.464 8.41974C15.2843 8.98601 15.3217 9.64687 15.623 10.2117L17.3876 9.27038Z" fill="#373F50" mask="url(#path-3-inside-2_273_755)"/>
<line x1="12" y1="3" x2="12" y2="10" stroke="#373F50" stroke-width="2" stroke-linecap="round"/>
<circle cx="12" cy="12" r="1" stroke="#373F50" stroke-width="2"/>
</svg>
