<svg width="34" height="35" viewBox="0 0 34 35" fill="none" xmlns="http://www.w3.org/2000/svg">
	<path
		d="M30.5711 17.4999C30.5711 25.3156 24.4513 31.571 17 31.571C9.5487 31.571 3.42892 25.3156 3.42892 17.4999C3.42892 9.68411 9.5487 3.4288 17 3.4288C24.4513 3.4288 30.5711 9.68411 30.5711 17.4999Z"
		stroke="currentColor" stroke-width="2.85784" />
	<path
		d="M27 26.9999V24.6665C27 23.4289 26.4732 22.2419 25.5355 21.3667C24.5978 20.4915 23.3261 19.9999 22 19.9999H12C10.6739 19.9999 9.40215 20.4915 8.46447 21.3667C7.52678 22.2419 7 23.4289 7 24.6665V26.9999"
		stroke="currentColor" stroke-width="2.85784" stroke-linecap="round" stroke-linejoin="round" />
	<path
		d="M17 16.9999C19.7614 16.9999 22 14.7613 22 11.9999C22 9.23845 19.7614 6.99988 17 6.99988C14.2386 6.99988 12 9.23845 12 11.9999C12 14.7613 14.2386 16.9999 17 16.9999Z"
		stroke="currentColor" stroke-width="2.85784" stroke-linecap="round" stroke-linejoin="round" />
</svg>