<svg width="24" height="24" viewBox="0 0 24 24" fill="none" xmlns="http://www.w3.org/2000/svg">
<path fill-rule="evenodd" clip-rule="evenodd" d="M12 22C17.5228 22 22 17.5228 22 12C22 6.47715 17.5228 2 12 2C6.47715 2 2 6.47715 2 12C2 17.5228 6.47715 22 12 22ZM10.8973 8.408L11.2332 13.304H12.7692L13.1053 8.408L13.1853 6.28H10.8173L10.8973 8.408ZM10.9773 16.776C11.2546 17.0533 11.5959 17.192 12.0013 17.192C12.4066 17.192 12.7426 17.0533 13.0093 16.776C13.2866 16.488 13.4253 16.136 13.4253 15.72C13.4253 15.2933 13.2866 14.9413 13.0093 14.664C12.7426 14.376 12.4066 14.232 12.0013 14.232C11.5959 14.232 11.2546 14.376 10.9773 14.664C10.7106 14.9413 10.5772 15.2933 10.5772 15.72C10.5772 16.136 10.7106 16.488 10.9773 16.776Z" fill="currentColor"/>
</svg>
