<svg width="24" height="24" viewBox="0 0 24 24" fill="none" xmlns="http://www.w3.org/2000/svg">
<line x1="7.57129" y1="7" x2="13.4284" y2="7" stroke="#373F50" stroke-width="2" stroke-linecap="round"/>
<line x1="7.57129" y1="10" x2="13.4284" y2="10" stroke="#373F50" stroke-width="2" stroke-linecap="round"/>
<line x1="7.57129" y1="13" x2="13.4284" y2="13" stroke="#373F50" stroke-width="2" stroke-linecap="round"/>
<line x1="8" y1="16" x2="11" y2="16" stroke="#373F50" stroke-width="2" stroke-linecap="round"/>
<path fill-rule="evenodd" clip-rule="evenodd" d="M7 2H14C16.2091 2 18 3.79086 18 6V9.47517C18 9.82009 17.8743 10.1532 17.6463 10.4121C17.0734 11.0628 16 10.6576 16 9.7906V6C16 4.89543 15.1046 4 14 4H7C5.89543 4 5 4.89543 5 6V18C5 19.1046 5.89543 20 7 20H14C15.1046 20 16 19.1046 16 18V17.6272C16 17.384 16.0887 17.149 16.2494 16.9664C16.8586 16.2745 18 16.7054 18 17.6272V18C18 20.2091 16.2091 22 14 22H7C4.79086 22 3 20.2091 3 18V6C3 3.79086 4.79086 2 7 2ZM16 14.6053C16 14.5709 16.0125 14.5377 16.0353 14.5119L17.7525 12.5614C17.8386 12.4636 18 12.5245 18 12.6548C18 12.6892 17.9875 12.7224 17.9647 12.7483L16.2475 14.6987C16.1614 14.7965 16 14.7356 16 14.6053Z" fill="#373F50"/>
<path d="M18.914 11.1552L13.6404 17.145L13.4807 17.7048L14.0157 17.4754L19.2893 11.4856L18.914 11.1552Z" stroke="#373F50" stroke-width="1.5"/>
<path d="M21.8402 9.72333C22.2051 9.30881 22.1649 8.67692 21.7504 8.31197C21.3359 7.94701 20.704 7.98719 20.3391 8.40171L19.2892 9.59419L20.7903 10.9158L21.8402 9.72333Z" fill="#373F50"/>
</svg>
