<svg width="24" height="24" viewBox="0 0 24 24" fill="none" xmlns="http://www.w3.org/2000/svg">
	<path fill-rule="evenodd" clip-rule="evenodd"
		d="M20.1588 3H21.2762C21.4306 3 21.5556 3.12306 21.5556 3.275V20.325C21.5556 20.4769 21.4306 20.6 21.2762 20.6H20.1588C20.0044 20.6 19.8794 20.4769 19.8794 20.325V3.275C19.8794 3.12306 20.0044 3 20.1588 3ZM16.8063 6.3H15.6888C15.5345 6.3 15.4095 6.42306 15.4095 6.575V20.325C15.4095 20.4769 15.5345 20.6 15.6888 20.6H16.8063C16.9606 20.6 17.0857 20.4769 17.0857 20.325V6.575C17.0857 6.42306 16.9606 6.3 16.8063 6.3ZM11.219 9.6H12.3365C12.4908 9.6 12.6158 9.72306 12.6158 9.875V20.325C12.6158 20.4769 12.4908 20.6 12.3365 20.6H11.219C11.0647 20.6 10.9396 20.4769 10.9396 20.325V9.875C10.9396 9.72306 11.0647 9.6 11.219 9.6ZM7.86665 12.9H6.74919C6.59484 12.9 6.46982 13.0231 6.46982 13.175V20.325C6.46982 20.4769 6.59484 20.6 6.74919 20.6H7.86665C8.021 20.6 8.14601 20.4769 8.14601 20.325V13.175C8.14601 13.0231 8.021 12.9 7.86665 12.9ZM3.39683 16.2H2.27937C2.12502 16.2 2 16.3231 2 16.475V20.325C2 20.4769 2.12502 20.6 2.27937 20.6H3.39683C3.55117 20.6 3.67619 20.4769 3.67619 20.325V16.475C3.67619 16.3231 3.55117 16.2 3.39683 16.2Z"
		fill="currentColor" />
</svg>