<svg width="24" height="24" viewBox="0 0 24 24" fill="none" xmlns="http://www.w3.org/2000/svg">
<rect width="0.929721" height="7.08331" rx="0.46486" transform="matrix(0.715919 -0.698183 0.695718 0.718315 6.15918 13.0933)" fill="#373F50"/>
<rect width="0.929721" height="7.08331" rx="0.46486" transform="matrix(0.715919 -0.698183 0.695718 0.718315 5.42969 13.8296)" fill="#373F50"/>
<mask id="path-3-inside-1_687_823" fill="white">
<path d="M7.55078 14.6793L9.64533 16.8271L6.78165 19.6198C6.38626 20.0054 5.75315 19.9975 5.36755 19.6021L4.66937 18.8862C4.28377 18.4908 4.29171 17.8577 4.6871 17.4721L7.55078 14.6793Z"/>
</mask>
<path d="M7.55078 14.6793L9.64533 16.8271L6.78165 19.6198C6.38626 20.0054 5.75315 19.9975 5.36755 19.6021L4.66937 18.8862C4.28377 18.4908 4.29171 17.8577 4.6871 17.4721L7.55078 14.6793Z" stroke="#373F50" stroke-width="3" mask="url(#path-3-inside-1_687_823)"/>
<path d="M8.28483 14.3352L15.443 5.58521L20.0521 4.58228L18.9339 9.16481L10.0312 16.1241" stroke="#373F50" stroke-linejoin="round"/>
<rect width="0.929721" height="7.08331" rx="0.46486" transform="matrix(-0.698435 -0.715674 0.71807 -0.695971 13.0977 18.5)" fill="#373F50"/>
<rect width="0.929721" height="7.08331" rx="0.46486" transform="matrix(-0.698435 -0.715674 0.71807 -0.695971 13.834 19.2289)" fill="#373F50"/>
<mask id="path-7-inside-2_687_823" fill="white">
<path d="M14.6826 17.108L16.8296 15.0127L19.4459 17.6935C19.8316 18.0888 19.8239 18.7219 19.4286 19.1076L18.7129 19.8061C18.3177 20.1918 17.6846 20.1841 17.2988 19.7888L14.6826 17.108Z"/>
</mask>
<path d="M14.6826 17.108L16.8296 15.0127L19.4459 17.6935C19.8316 18.0888 19.8239 18.7219 19.4286 19.1076L18.7129 19.8061C18.3177 20.1918 17.6846 20.1841 17.2988 19.7888L14.6826 17.108Z" stroke="#373F50" stroke-width="3" mask="url(#path-7-inside-2_687_823)"/>
<path d="M8.81528 11.9027L5.58573 9.21841L4.58118 4.60963L9.1641 5.72623L11.8153 8.40274" stroke="#373F50" stroke-linejoin="round"/>
<path d="M14.4581 16.5436L13.2363 15.3157" stroke="#373F50" stroke-linejoin="round"/>
<path d="M16.1631 14.3957L15.1582 13.4006" stroke="#373F50" stroke-linejoin="round"/>
</svg>
