<svg width="24" height="25" viewBox="0 0 24 25" fill="none" xmlns="http://www.w3.org/2000/svg">
<circle cx="11.4705" cy="5.3992" r="2.6492" stroke="currentColor" stroke-width="1.5"/>
<path d="M12.7154 14.5869L11.9677 14.6445L11.8551 16.1403L12.6029 16.0827L12.7154 14.5869ZM13.1014 16.0443C13.5144 16.0125 13.8744 15.6518 13.9055 15.2388C13.9366 14.8257 13.627 14.5167 13.214 14.5485L13.1014 16.0443ZM12.6029 16.0827L13.1014 16.0443L13.214 14.5485L12.7154 14.5869L12.6029 16.0827Z" fill="currentColor"/>
<path d="M12.7565 12.2307L12.0087 12.2883L11.8961 13.7841L12.6439 13.7265L12.7565 12.2307ZM13.4416 13.665C13.8546 13.6332 14.2145 13.2726 14.2456 12.8595C14.2767 12.4465 13.9671 12.1374 13.5541 12.1692L13.4416 13.665ZM12.6439 13.7265L13.4416 13.665L13.5541 12.1692L12.7565 12.2307L12.6439 13.7265Z" fill="currentColor"/>
<path d="M11.686 8.59424L11.7452 16.594" stroke="currentColor" stroke-width="2" stroke-linecap="round"/>
<path fill-rule="evenodd" clip-rule="evenodd" d="M9.07129 15.687C7.27788 15.9506 6.07129 16.513 6.07129 17.5C6.07129 18.9728 8.75758 19.5 12.0713 19.5C15.385 19.5 18.0713 18.9728 18.0713 17.5C18.0713 16.513 16.8647 15.9506 15.0713 15.687V16.6986C15.428 16.7557 15.7508 16.8253 16.0346 16.9079C16.5121 17.0468 16.8016 17.2009 16.9544 17.33C17.0733 17.4305 17.0719 17.4776 17.0714 17.4968L17.0713 17.5L17.0714 17.5032C17.0719 17.5224 17.0733 17.5695 16.9544 17.67C16.8016 17.7991 16.5121 17.9532 16.0346 18.0921C15.0849 18.3684 13.6967 18.5 12.0713 18.5C10.4458 18.5 9.05766 18.3684 8.10801 18.0921C7.63046 17.9532 7.341 17.7991 7.1882 17.67C7.06931 17.5695 7.07067 17.5224 7.07122 17.5032L7.07129 17.5L7.07122 17.4968C7.07067 17.4776 7.06931 17.4305 7.1882 17.33C7.341 17.2009 7.63046 17.0468 8.10801 16.9079C8.39174 16.8253 8.71463 16.7557 9.07129 16.6986V15.687Z" fill="currentColor"/>
<path fill-rule="evenodd" clip-rule="evenodd" d="M9.07143 13.177C7.7452 13.3386 6.53352 13.6064 5.51499 13.9629C4.64755 14.2665 3.83865 14.6625 3.2173 15.1766C2.60548 15.6829 2 16.4604 2 17.5C2 18.5396 2.60548 19.3171 3.2173 19.8234C3.83865 20.3376 4.64755 20.7335 5.51499 21.0371C7.26371 21.6492 9.58183 22 12.0714 22C14.561 22 16.8791 21.6492 18.6279 21.0371C19.4953 20.7335 20.3042 20.3376 20.9256 19.8234C21.5374 19.3171 22.1429 18.5396 22.1429 17.5C22.1429 16.4604 21.5374 15.6829 20.9256 15.1766C20.3042 14.6625 19.4953 14.2665 18.6279 13.9629C17.6093 13.6064 16.3977 13.3386 15.0714 13.177V14.6889C18.3257 15.1145 20.6429 16.2126 20.6429 17.5C20.6429 19.1569 16.8053 20.5 12.0714 20.5C7.33756 20.5 3.5 19.1569 3.5 17.5C3.5 16.2126 5.81714 15.1145 9.07143 14.6889V13.177Z" fill="currentColor"/>
</svg>
