<svg width="24" height="24" viewBox="0 0 24 24" fill="none" xmlns="http://www.w3.org/2000/svg">
	<path fill-rule="evenodd" clip-rule="evenodd"
		d="M20.5 12C20.5 14.0772 19.7549 15.9803 18.5174 17.4568L16.0261 14.9654C16.6382 14.1358 17 13.1101 17 12C17 10.8899 16.6382 9.86422 16.0261 9.03456L18.5174 6.54322C19.7549 8.01967 20.5 9.92282 20.5 12ZM12 20.5C14.0772 20.5 15.9803 19.7549 17.4568 18.5174L14.9654 16.0261C14.1358 16.6382 13.1101 17 12 17C10.8899 17 9.86422 16.6382 9.03456 16.0261L6.54322 18.5174C8.01967 19.7549 9.92282 20.5 12 20.5ZM5.48256 17.4568C4.24508 15.9803 3.5 14.0772 3.5 12C3.5 9.92282 4.24508 8.01967 5.48256 6.54322L7.9739 9.03456C7.36179 9.86422 7 10.8899 7 12C7 13.1101 7.36179 14.1358 7.9739 14.9654L5.48256 17.4568ZM14.9654 7.9739L17.4568 5.48256C15.9803 4.24508 14.0772 3.5 12 3.5C9.92282 3.5 8.01967 4.24508 6.54322 5.48256L9.03456 7.9739C9.86422 7.36179 10.8899 7 12 7C13.1101 7 14.1358 7.36179 14.9654 7.9739ZM22 12C22 17.5228 17.5228 22 12 22C6.47715 22 2 17.5228 2 12C2 6.47715 6.47715 2 12 2C17.5228 2 22 6.47715 22 12ZM15.5 12C15.5 13.933 13.933 15.5 12 15.5C10.067 15.5 8.5 13.933 8.5 12C8.5 10.067 10.067 8.5 12 8.5C13.933 8.5 15.5 10.067 15.5 12Z"
		fill="currentColor" />
</svg>