<svg width="20" height="17" viewBox="0 0 20 17" fill="none" xmlns="http://www.w3.org/2000/svg">
	<path fill-rule="evenodd" clip-rule="evenodd"
		d="M0.692901 0C0.319391 0 0.0166016 0.302789 0.0166016 0.676299V4.29706C0.0869172 4.2844 0.158435 4.27789 0.230928 4.27789C0.660296 4.27789 1.05546 4.50623 1.3692 4.88928V1.3526H16.6474V12.9657H1.3692V9.42905C1.05546 9.8121 0.660296 10.0404 0.230928 10.0404C0.158435 10.0404 0.0869172 10.0339 0.0166016 10.0213V13.642C0.0166016 14.0155 0.319391 14.3183 0.692901 14.3183H17.3237C17.6972 14.3183 18 14.0155 18 13.642V0.676299C18 0.302789 17.6972 0 17.3237 0H0.692901Z"
		fill="currentColor" />
	<path d="M0 3.55762C2.80779 3.55762 2.80779 10.7608 0 10.7608" stroke="currentColor" stroke-width="1.3526" />
	<path
		d="M8.10645 4.88096C8.2519 4.43794 8.539 4.06437 8.91689 3.82642C9.29479 3.58846 9.73909 3.50148 10.1711 3.58087C10.6031 3.66027 10.995 3.90092 11.2772 4.2602C11.5595 4.61948 11.714 5.07421 11.7134 5.54384C11.7134 6.86959 9.85732 7.53247 9.85732 7.53247L9.90991 8.56647"
		stroke="currentColor" stroke-width="1.3526" stroke-linecap="round" stroke-linejoin="round" />
	<path d="M9.91016 10.7661H9.9153" stroke="currentColor" stroke-width="1.3526" stroke-linecap="round"
		stroke-linejoin="round" />
	<path d="M4.5 3.55225V10.7661" stroke="currentColor" stroke-width="0.901732" stroke-linecap="round" />
	<path
		d="M20 4.5C20 4.22386 19.7761 4 19.5 4C19.2239 4 19 4.22386 19 4.5H20ZM19.5 16V16.5C19.7761 16.5 20 16.2761 20 16H19.5ZM3 15.5C2.72386 15.5 2.5 15.7239 2.5 16C2.5 16.2761 2.72386 16.5 3 16.5V15.5ZM19 4.5V16H20V4.5H19ZM19.5 15.5H3V16.5H19.5V15.5Z"
		fill="currentColor" />
</svg>