<svg width="24" height="24" viewBox="0 0 24 24" fill="currentColor" xmlns="http://www.w3.org/2000/svg">
	<path fill-rule="evenodd" clip-rule="evenodd"
		d="M20 6.5H4C3.72386 6.5 3.5 6.72386 3.5 7V7.5H20.5V7C20.5 6.72386 20.2761 6.5 20 6.5ZM20.5 9H3.5V17C3.5 17.2761 3.72386 17.5 4 17.5H20C20.2761 17.5 20.5 17.2761 20.5 17V9ZM4 5C2.89543 5 2 5.89543 2 7V17C2 18.1046 2.89543 19 4 19H20C21.1046 19 22 18.1046 22 17V7C22 5.89543 21.1046 5 20 5H4ZM18 12H14V14H18V12ZM14 11C13.4477 11 13 11.4477 13 12V14C13 14.5523 13.4477 15 14 15H18C18.5523 15 19 14.5523 19 14V12C19 11.4477 18.5523 11 18 11H14Z"
		fill="currentColor" />
</svg>