<svg width="24" height="24" viewBox="0 0 24 24" fill="none" xmlns="http://www.w3.org/2000/svg">
	<path
		d="M21.7821 14.12V13.056C21.7821 12.4916 21.5314 11.9503 21.0853 11.5513C20.6391 11.1522 20.034 10.928 19.403 10.928H14.6447C14.0138 10.928 13.4086 11.1522 12.9625 11.5513C12.5163 11.9503 12.2656 12.4916 12.2656 13.056V14.12"
		stroke="currentColor" stroke-width="1.30317" stroke-linecap="round" stroke-linejoin="round" />
	<path
		d="M17.0237 9.55998C18.3376 9.55998 19.4028 8.53919 19.4028 7.27999C19.4028 6.02079 18.3376 5 17.0237 5C15.7097 5 14.6445 6.02079 14.6445 7.27999C14.6445 8.53919 15.7097 9.55998 17.0237 9.55998Z"
		stroke="currentColor" stroke-width="1.30317" stroke-linecap="round" stroke-linejoin="round" />
	<path
		d="M12.5165 19.4399V18.3759C12.5165 17.8115 12.2658 17.2703 11.8197 16.8712C11.3735 16.4721 10.7683 16.2479 10.1374 16.2479H5.37912C4.74814 16.2479 4.143 16.4721 3.69683 16.8712C3.25066 17.2703 3 17.8115 3 18.3759V19.4399"
		stroke="currentColor" stroke-width="1.30317" stroke-linecap="round" stroke-linejoin="round" />
	<path
		d="M7.75803 14.8799C9.07198 14.8799 10.1371 13.8591 10.1371 12.5999C10.1371 11.3407 9.07198 10.3199 7.75803 10.3199C6.44407 10.3199 5.37891 11.3407 5.37891 12.5999C5.37891 13.8591 6.44407 14.8799 7.75803 14.8799Z"
		stroke="currentColor" stroke-width="1.30317" stroke-linecap="round" stroke-linejoin="round" />
</svg>