<svg width="34" height="35" viewBox="0 0 34 35" fill="none" xmlns="http://www.w3.org/2000/svg">
	<path
		d="M31 17.5C31 25.5393 24.7013 32 17 32C9.29867 32 3 25.5393 3 17.5C3 9.46071 9.29867 3 17 3C24.7013 3 31 9.46071 31 17.5Z"
		stroke="currentColor" stroke-width="2" />
	<path
		d="M27 27V24.6667C27 23.429 26.4732 22.242 25.5355 21.3668C24.5979 20.4917 23.3261 20 22 20H12C10.6739 20 9.40215 20.4917 8.46447 21.3668C7.52678 22.242 7 23.429 7 24.6667V27"
		stroke="currentColor" stroke-width="2" stroke-linecap="round" stroke-linejoin="round" />
	<path
		d="M17 17C19.7614 17 22 14.7614 22 12C22 9.23858 19.7614 7 17 7C14.2386 7 12 9.23858 12 12C12 14.7614 14.2386 17 17 17Z"
		stroke="currentColor" stroke-width="2" stroke-linecap="round" stroke-linejoin="round" />
</svg>